<svg xmlns="http://www.w3.org/2000/svg" width="188.783" height="58.887" viewBox="0 0 188.783 58.887">
  <g id="Logo" transform="translate(0 0)">
    <g id="Grupo_195" data-name="Grupo 195" transform="translate(58.306 6.904)">
      <g id="Grupo_194" data-name="Grupo 194" transform="translate(0 0)">
        <rect id="Retângulo_86" data-name="Retângulo 86" width="8.112" height="25.956" transform="translate(16.02 8.922)" fill="#7c7b7b"/>
        <path id="Caminho_292" data-name="Caminho 292" d="M338.451,148.79c-4.529-4.258-10.544-4.867-15.141-4.867H260.171v6.354h10.7v-.009h43.242v.009h9.263c4.461,0,11.49,1.149,11.49,10.882,0,2.366-.2,5.678-3.042,8.178-2.029,1.826-5.544,3.109-10.748,3.109h-12.1v-19.6l-8.111,5.309V178.8h20.344c5.678,0,10.612-.473,14.33-2.7,3.177-1.893,7.707-6.49,7.707-14.939C343.25,155.891,341.694,151.764,338.451,148.79Z" transform="translate(-260.171 -143.923)" fill="#7c7b7b"/>
      </g>
      <path id="Caminho_293" data-name="Caminho 293" d="M465.389,178.8h-8.112V143.923h8.112Z" transform="translate(-370.143 -143.923)" fill="#7c7b7b"/>
      <path id="Caminho_294" data-name="Caminho 294" d="M488.452,160.349l23.119-16.425H499.809L481.99,157.318v7.252L501.362,178.8h13.046Z" transform="translate(-383.931 -143.923)" fill="#7c7b7b"/>
    </g>
    <g id="Grupo_196" data-name="Grupo 196" transform="translate(73.501 49.334)">
      <path id="Caminho_295" data-name="Caminho 295" d="M295.817,243.423c0,1.37.637,1.854,1.606,1.854a2.54,2.54,0,0,0,1.569-.522l.466,1.093a3.5,3.5,0,0,1-2.035.618c-1.673,0-2.88-.874-2.88-3.042v-.4c0-2.167,1.207-3.042,2.88-3.042a3.564,3.564,0,0,1,2.035.608l-.466,1.093a2.985,2.985,0,0,0-1.569-.514c-.969,0-1.606.494-1.606,1.854Z" transform="translate(-294.544 -239.981)" fill="#fdc300"/>
      <path id="Caminho_296" data-name="Caminho 296" d="M307.982,243.025c0-2.186,1.093-3.042,2.595-3.042s2.6.856,2.6,3.042v.4c0,2.186-1.093,3.042-2.6,3.042s-2.595-.856-2.595-3.042Zm3.906,0c0-1.407-.523-1.854-1.312-1.854s-1.312.447-1.312,1.854v.4c0,1.407.523,1.854,1.312,1.854s1.312-.447,1.312-1.854Z" transform="translate(-302.041 -239.981)" fill="#fdc300"/>
      <path id="Caminho_297" data-name="Caminho 297" d="M325.263,244.082h-.977v2.424H323.01v-6.179h2.415c1.713,0,2.386.789,2.386,1.884a1.672,1.672,0,0,1-1.226,1.683l1.731,2.614h-1.46Zm-.979-2.569v1.379h1.141c.837,0,1.113-.314,1.113-.685,0-.418-.276-.694-1.113-.694Z" transform="translate(-310.426 -240.173)" fill="#fdc300"/>
      <path id="Caminho_298" data-name="Caminho 298" d="M339.583,244.082h-.98v2.424H337.33v-6.179h2.414c1.713,0,2.386.789,2.386,1.884a1.671,1.671,0,0,1-1.226,1.683l1.73,2.614h-1.464Zm-.98-2.569v1.379h1.141c.837,0,1.113-.314,1.113-.685,0-.418-.276-.694-1.113-.694Z" transform="translate(-318.416 -240.173)" fill="#fdc300"/>
      <path id="Caminho_299" data-name="Caminho 299" d="M352.923,245.317h3.339v1.189h-4.61v-6.179h4.61v1.189h-3.339v1.141h2.956v1.189h-2.956Z" transform="translate(-326.405 -240.173)" fill="#fdc300"/>
      <path id="Caminho_300" data-name="Caminho 300" d="M363.818,240.327h5.314v1.189h-2.016v4.99h-1.284v-4.99h-2.015Z" transform="translate(-333.194 -240.173)" fill="#fdc300"/>
      <path id="Caminho_301" data-name="Caminho 301" d="M377.965,243.025c0-2.186,1.094-3.042,2.595-3.042s2.6.856,2.6,3.042v.4c0,2.186-1.093,3.042-2.6,3.042s-2.595-.856-2.595-3.042Zm3.907,0c0-1.407-.523-1.854-1.312-1.854s-1.312.447-1.312,1.854v.4c0,1.407.523,1.854,1.312,1.854s1.312-.447,1.312-1.854Z" transform="translate(-341.087 -239.981)" fill="#fdc300"/>
      <path id="Caminho_302" data-name="Caminho 302" d="M395.247,244.082h-.98v2.424h-1.273v-6.179h2.415c1.713,0,2.386.789,2.386,1.884a1.672,1.672,0,0,1-1.226,1.683l1.73,2.614h-1.464Zm-.98-2.569v1.379h1.141c.837,0,1.113-.314,1.113-.685,0-.418-.276-.694-1.113-.694Z" transform="translate(-349.472 -240.173)" fill="#fdc300"/>
      <path id="Caminho_303" data-name="Caminho 303" d="M408.2,240.327h1.3l2.243,6.179h-1.3l-.58-1.6h-2.024l-.58,1.6h-1.3Zm.066,3.393h1.16l-.58-1.6Z" transform="translate(-356.706 -240.173)" fill="#fdc300"/>
      <path id="Caminho_304" data-name="Caminho 304" d="M427.158,240.327h1.929a2.548,2.548,0,0,1,2.871,2.89v.4a2.548,2.548,0,0,1-2.871,2.89h-1.929Zm3.526,2.89c0-1.293-.541-1.7-1.6-1.7h-.656v3.8h.656c1.055,0,1.6-.408,1.6-1.7Z" transform="translate(-368.534 -240.173)" fill="#fdc300"/>
      <path id="Caminho_305" data-name="Caminho 305" d="M442.578,245.317h3.339v1.189H441.3v-6.179h4.61v1.189h-3.339v1.141h2.957v1.189h-2.957Z" transform="translate(-376.426 -240.173)" fill="#fdc300"/>
      <path id="Caminho_306" data-name="Caminho 306" d="M460.139,244.764a4.024,4.024,0,0,0,2.044.514c.723,0,1.188-.218,1.188-.608,0-.475-.456-.665-1.321-.856-.96-.247-2.215-.685-2.215-2.072,0-1.407,1.17-1.759,2.348-1.759a4.631,4.631,0,0,1,2.415.608l-.494,1.084a3.6,3.6,0,0,0-1.921-.5c-.561,0-1.064.142-1.064.57,0,.542.771.656,1.178.789,1.578.428,2.357.96,2.357,2.141,0,1.55-1.444,1.8-2.471,1.8a5.16,5.16,0,0,1-2.538-.618Z" transform="translate(-386.659 -239.981)" fill="#fdc300"/>
      <path id="Caminho_307" data-name="Caminho 307" d="M475.153,245.317h3.339v1.189h-4.61v-6.179h4.61v1.189h-3.339v1.141h2.956v1.189h-2.956Z" transform="translate(-394.601 -240.173)" fill="#fdc300"/>
      <path id="Caminho_308" data-name="Caminho 308" d="M489.056,242.8h2.681v3.051a3.5,3.5,0,0,1-2.035.618c-1.673,0-2.88-.874-2.88-3.042v-.4c0-2.167,1.206-3.041,2.88-3.041a3.564,3.564,0,0,1,2.035.608l-.466,1.093a2.985,2.985,0,0,0-1.569-.514c-.969,0-1.606.494-1.606,1.854v.4c0,1.37.637,1.854,1.606,1.854a2.834,2.834,0,0,0,.76-.1v-1.284h-1.407Z" transform="translate(-401.822 -239.982)" fill="#fdc300"/>
      <path id="Caminho_309" data-name="Caminho 309" d="M501.034,240.327h1.273v3.289c0,1.407.485,1.854,1.226,1.854s1.217-.447,1.217-1.854v-3.289h1.273v3.289c0,2.186-1.055,3.042-2.491,3.042s-2.5-.856-2.5-3.042Z" transform="translate(-409.751 -240.173)" fill="#fdc300"/>
      <path id="Caminho_310" data-name="Caminho 310" d="M518.056,244.082h-.979v2.424H515.8v-6.179h2.414c1.713,0,2.386.789,2.386,1.884a1.671,1.671,0,0,1-1.226,1.683l1.73,2.614h-1.464Zm-.979-2.569v1.379h1.141c.837,0,1.113-.314,1.113-.685,0-.418-.276-.694-1.113-.694Z" transform="translate(-417.992 -240.173)" fill="#fdc300"/>
      <path id="Caminho_311" data-name="Caminho 311" d="M529.737,243.025c0-2.186,1.093-3.042,2.6-3.042s2.595.856,2.595,3.042v.4c0,2.186-1.093,3.042-2.595,3.042s-2.6-.856-2.6-3.042Zm3.907,0c0-1.407-.523-1.854-1.312-1.854s-1.312.447-1.312,1.854v.4c0,1.407.522,1.854,1.312,1.854s1.312-.447,1.312-1.854Z" transform="translate(-425.765 -239.981)" fill="#fdc300"/>
      <path id="Caminho_312" data-name="Caminho 312" d="M544.485,244.764a4.024,4.024,0,0,0,2.044.514c.723,0,1.188-.218,1.188-.608,0-.475-.456-.665-1.321-.856-.96-.247-2.215-.685-2.215-2.072,0-1.407,1.169-1.759,2.348-1.759a4.631,4.631,0,0,1,2.415.608l-.494,1.084a3.6,3.6,0,0,0-1.921-.5c-.56,0-1.064.142-1.064.57,0,.542.771.656,1.178.789,1.578.428,2.357.96,2.357,2.141,0,1.55-1.445,1.8-2.472,1.8a5.16,5.16,0,0,1-2.538-.618Z" transform="translate(-433.718 -239.981)" fill="#fdc300"/>
    </g>
    <g id="Grupo_197" data-name="Grupo 197" transform="translate(0 0)">
      <path id="Caminho_313" data-name="Caminho 313" d="M178.3,134.751a73.741,73.741,0,0,0-7.574-3.318,47.617,47.617,0,0,0-33.94,0,73.713,73.713,0,0,0-7.574,3.318l-1.181.613v29.758a17.7,17.7,0,0,0,9.134,13.682c7.743,4.489,15.386,7.86,15.708,8l.881.388.881-.388c.322-.141,7.963-3.513,15.708-8a17.7,17.7,0,0,0,9.134-13.682V135.363Zm-26.733,46.636c-2.939-1.392-7.6-3.7-12.2-6.366a14.025,14.025,0,0,1-5.937-6.434,11.8,11.8,0,0,1-1.016-3.629V138.044c1.7-.822,3.693-1.669,5.937-2.523a43.125,43.125,0,0,1,13.223-2.784Zm23.536-16.424a11.7,11.7,0,0,1-.942,3.459,13.99,13.99,0,0,1-6.01,6.6c-4.6,2.669-9.263,4.973-12.2,6.366V132.736a43.133,43.133,0,0,1,13.223,2.784c2.243.856,4.233,1.7,5.936,2.523Z" transform="translate(-128.033 -128.306)" fill="#fdc300"/>
      <path id="Caminho_314" data-name="Caminho 314" d="M152.551,173.03l-7.506,7.519,3.168,3.174,10.735-10.65L148.3,162.388l-3.226,3.209Z" transform="translate(-137.524 -147.336)" fill="#fdc300"/>
      <path id="Caminho_315" data-name="Caminho 315" d="M206.719,162.265l-10.648,10.7L206.7,183.651l3.2-3.2-7.45-7.51,7.461-7.466Z" transform="translate(-165.993 -147.267)" fill="#fdc300"/>
    </g>
  </g>
</svg>
