<svg xmlns="http://www.w3.org/2000/svg" width="225.001" height="64" viewBox="0 0 225.001 64">
  <g id="Logo" transform="translate(-47.038)">
    <path id="Caminho_557" data-name="Caminho 557" d="M980.54,618.2h-9.8c-4.134,0-6.443,2-7.06,6.131l-1.911,12.788c-.322,2.149,0,3.733.947,4.845s2.459,1.64,4.581,1.64h9.8c4.134,0,6.443-2.007,7.058-6.131l1.913-12.788c.32-2.147,0-3.731-.947-4.842s-2.459-1.64-4.581-1.64m-2.575,18.916a1.164,1.164,0,0,1-.143.492.477.477,0,0,1-.185.025h-9.689a.528.528,0,0,1,.02-.165l1.913-12.788a1.214,1.214,0,0,1,.143-.492.576.576,0,0,1,.184-.022H979.9a.523.523,0,0,1-.02.165Z" transform="translate(-765.725 -604.625)" fill="#fff"/>
    <path id="Caminho_558" data-name="Caminho 558" d="M1086.273,618.2h-9.8c-4.134,0-6.443,2-7.06,6.131l-1.913,12.788c-.32,2.149,0,3.733.947,4.845s2.459,1.64,4.584,1.64h9.8c4.131,0,6.44-2.007,7.057-6.131l1.913-12.788c.32-2.147,0-3.731-.947-4.842s-2.459-1.64-4.584-1.64m-2.577,18.918a1.214,1.214,0,0,1-.142.492.506.506,0,0,1-.187.025h-9.684a.518.518,0,0,1,.02-.165l1.911-12.788a1.274,1.274,0,0,1,.142-.492.614.614,0,0,1,.187-.022h9.687a.519.519,0,0,1-.02.165Z" transform="translate(-845.457 -604.625)" fill="#fff"/>
    <path id="Caminho_559" data-name="Caminho 559" d="M880.175,637.043H866.65a1.591,1.591,0,0,1-1.608-1.889l1.436-9.758a2.262,2.262,0,0,1,2.164-1.889h13.525l.88-6h-15.34a7.605,7.605,0,0,0-7.272,6.342L858.549,636.7a5.345,5.345,0,0,0,5.41,6.34h15.333Z" transform="translate(-687.929 -604.105)" fill="#fff"/>
    <path id="Caminho_560" data-name="Caminho 560" d="M654.174,619.414a7.459,7.459,0,0,0-2.511,4.493c-.738,5.041.777,6.519,5.41,8.155l7.306,2.575a1.188,1.188,0,0,1,.821.9,1.281,1.281,0,0,1-.307.935,1.9,1.9,0,0,1-1.355.617H649.73l-.88,6h15.335a7.261,7.261,0,0,0,4.761-1.867,7.446,7.446,0,0,0,2.511-4.49c.738-5.044-.777-6.522-5.41-8.154l-7.314-2.563a1.163,1.163,0,0,1-.738-1.456,1.6,1.6,0,0,1,1.589-1h13.808l.88-6H658.935a7.275,7.275,0,0,0-4.761,1.867" transform="translate(-529.85 -604.143)" fill="#fff"/>
    <path id="Caminho_561" data-name="Caminho 561" d="M781.076,659.65l-2.226,15.166H785.1l2.225-15.166Z" transform="translate(-627.881 -635.882)" fill="#fff"/>
    <path id="Caminho_562" data-name="Caminho 562" d="M760.762,617.51l-.912,6h21.5l.88-6Z" transform="translate(-613.553 -604.105)" fill="#fff"/>
    <path id="Caminho_563" data-name="Caminho 563" d="M1194.823,619.84c-.949-1.1-2.459-1.64-4.582-1.64H1175.15l-.873,5.828h15.338a1.592,1.592,0,0,1-.02.165l-.585,3.708a1.2,1.2,0,0,1-.142.492.478.478,0,0,1-.185.025h-8.853v-.027h-6.2L1171.35,643.6h6.249l1.348-9.215h9.2c4.134,0,6.443-2.007,7.06-6.133l.563-3.568C1196.1,622.536,1195.782,620.952,1194.823,619.84Z" transform="translate(-923.858 -604.625)" fill="#fff"/>
    <path id="Caminho_564" data-name="Caminho 564" d="M899.072,321.16l-.066-3.389-17.876-12.4H858.014l-17.827,12.542-.052,3.381c-.182,11.988,1.867,22.034,6.089,29.859a35.668,35.668,0,0,0,21.5,17.593l2,.625,1.992-.634a35.706,35.706,0,0,0,21.417-17.689C897.307,343.2,899.308,333.146,899.072,321.16ZM880.21,356.184l-3.967-4.2H862.908l-3.893,4.127c-7.333-6.315-11.1-16.292-11.725-29.134v-.175c-.02-.391-.034-.784-.047-1.18h0c0-.4-.022-.794-.03-1.2v-2.715l13.085-9.207h18.579l13.125,9.1h0C892.3,337.089,888.582,349.006,880.21,356.184Z" transform="translate(-793.087 -305.37)" fill="#fff"/>
    <path id="Caminho_565" data-name="Caminho 565" d="M910,461.356v3.052c0,.428.571.811,1.441.969l3.406-.054S910,461.142,910,461.356Z" transform="translate(-845.779 -422.99)" fill="#fff"/>
    <path id="Caminho_566" data-name="Caminho 566" d="M899.725,388.169l-1.259.354a.548.548,0,0,0-.322.48l-.057,4.9a.507.507,0,0,0,.148.389l1.065.738a.266.266,0,0,0,.443-.187l.317-6.438a.246.246,0,0,0-.334-.234Z" transform="translate(-836.795 -367.795)" fill="#fff"/>
    <path id="Caminho_567" data-name="Caminho 567" d="M912.862,431.864l-1.279-6.977c-.089-.531-1.574-1.387-1.574-1.387v5.317C910.008,429.96,912.862,431.864,912.862,431.864Z" transform="translate(-845.786 -394.45)" fill="#fff"/>
    <path id="Caminho_568" data-name="Caminho 568" d="M934.82,463.87l.246.883a.492.492,0,0,0,.344.347l1.589.425a.423.423,0,0,0,.123.017H944.9a.424.424,0,0,0,.123-.017l1.589-.425a.492.492,0,0,0,.344-.347l.246-.883Z" transform="translate(-864.495 -424.892)" fill="#fff"/>
    <path id="Caminho_569" data-name="Caminho 569" d="M924.905,362.965h11.45s-.541-4.065-2.705-4.065H916.165c-2.169,0-2.705,4.065-2.705,4.065Z" transform="translate(-848.388 -345.736)" fill="#fff"/>
    <path id="Caminho_570" data-name="Caminho 570" d="M930.69,447.92l.288,1.03a.583.583,0,0,0,.4.406l1.852.492a.566.566,0,0,0,.143.017h9.045a.565.565,0,0,0,.143-.017l1.852-.492a.583.583,0,0,0,.4-.406l.288-1.03Z" transform="translate(-861.38 -412.864)" fill="#fff"/>
    <path id="Caminho_571" data-name="Caminho 571" d="M990.28,465.322l3.406.054c.87-.157,1.441-.541,1.441-.969v-3.052C995.13,461.142,990.28,465.322,990.28,465.322Z" transform="translate(-906.316 -422.99)" fill="#fff"/>
    <path id="Caminho_572" data-name="Caminho 572" d="M1015.482,388.523l-1.259-.354a.246.246,0,0,0-.334.246l.317,6.438a.266.266,0,0,0,.443.187l1.065-.738a.506.506,0,0,0,.148-.389l-.057-4.9A.549.549,0,0,0,1015.482,388.523Z" transform="translate(-924.118 -367.794)" fill="#fff"/>
    <path id="Caminho_573" data-name="Caminho 573" d="M999.669,424.887l-1.279,6.977s2.853-1.9,2.853-3.047V423.5S999.77,424.361,999.669,424.887Z" transform="translate(-912.432 -394.45)" fill="#fff"/>
    <path id="Caminho_574" data-name="Caminho 574" d="M933.92,385.15H910.686l-.642,5.9a5.568,5.568,0,0,0-.034.642v.984a31.37,31.37,0,0,0,5.688.9h13.211a31.37,31.37,0,0,0,5.688-.9v-.984a5.6,5.6,0,0,0-.034-.642Z" transform="translate(-845.786 -365.531)" fill="#fff"/>
    <path id="Caminho_575" data-name="Caminho 575" d="M942.809,432.078l.325-1.168H926.81l.325,1.168a.654.654,0,0,0,.457.46l2.1.563a.583.583,0,0,0,.16.022H940.09a.582.582,0,0,0,.16-.022l2.1-.563A.654.654,0,0,0,942.809,432.078Z" transform="translate(-858.455 -400.038)" fill="#fff"/>
    <path id="Caminho_576" data-name="Caminho 576" d="M650,779.859l.912-6.532h1.326l2.024,4.095h.02l.576-4.1h1.291l-.915,6.532h-1.316l-2.056-3.957h-.017l-.558,3.957Z" transform="translate(-531 -722.243)" fill="#fff"/>
    <path id="Caminho_577" data-name="Caminho 577" d="M681.642,778.245h-2.066l-.644,1.476h-1.4l3.035-6.581h1.613l1.163,6.581H681.88Zm-.548-3.443-1.085,2.344h1.527l-.423-2.344Z" transform="translate(-551.759 -722.107)" fill="#fff"/>
    <path id="Caminho_578" data-name="Caminho 578" d="M710.677,773a7.222,7.222,0,0,1,2.307.364l-.452,1.107a7.22,7.22,0,0,0-1.911-.29c-1.21,0-1.721.836-1.923,2.134-.192,1.392.106,2.238,1.318,2.238a8.272,8.272,0,0,0,1.987-.288l.135,1.1a8.236,8.236,0,0,1-2.248.344l-.057.413c.315.039.777.175.7.7-.069.463-.462.76-1.087.76a2.786,2.786,0,0,1-.767-.116l.133-.394a2.2,2.2,0,0,0,.452.057.457.457,0,0,0,.509-.374c.03-.192-.116-.354-.433-.393l.1-.664c-2.026-.123-2.371-1.613-2.122-3.4C707.566,774.461,708.382,773,710.677,773Z" transform="translate(-574.167 -722.001)" fill="#fff"/>
    <path id="Caminho_579" data-name="Caminho 579" d="M736.492,773.517h-2.066l-.644,1.475h-1.4l3.035-6.581h1.613L738.189,775h-1.461Zm-1.475-5.467-.337-.307c.423-.691.826-.873,1.163-.873.47,0,.883.421,1.21.421.172,0,.366-.066.674-.393l.268.376c-.366.576-.7.767-1.048.767s-.826-.393-1.19-.393c-.2-.007-.362.056-.735.4Zm.922,2.017-1.085,2.344h1.527l-.406-2.344Z" transform="translate(-593.121 -717.379)" fill="#fff"/>
    <path id="Caminho_580" data-name="Caminho 580" d="M762.128,776.275c.261-1.844,1.077-3.315,3.372-3.315s2.705,1.476,2.439,3.315-1.085,3.408-3.381,3.408S761.869,778.134,762.128,776.275Zm1.394,0c-.184,1.3-.1,2.3,1.19,2.3s1.652-1.008,1.835-2.3.086-2.213-1.2-2.213-1.633.915-1.827,2.213Z" transform="translate(-615.501 -721.971)" fill="#fff"/>
    <path id="Caminho_581" data-name="Caminho 581" d="M804.3,777.577l-.317,2.3H802.66l.912-6.532h2.786a1.7,1.7,0,0,1,1.864,2.113,2.345,2.345,0,0,1-2.459,2.115Zm.172-1.173h1.315a.984.984,0,0,0,1.077-.942.723.723,0,0,0-.807-.932h-1.325Z" transform="translate(-646.118 -722.265)" fill="#fff"/>
    <path id="Caminho_582" data-name="Caminho 582" d="M835.179,774.53h-3.1l-.2,1.394h2.671l-.172,1.171h-2.651l-.221,1.616h3.14l-.162,1.171H830l.915-6.532h4.427Z" transform="translate(-666.734 -722.265)" fill="#fff"/>
    <path id="Caminho_583" data-name="Caminho 583" d="M855.56,779.359l.374-1.1a9.288,9.288,0,0,0,2.213.288c.674,0,1.114-.307,1.173-.738.086-.6-.644-.738-1.385-.942-1.075-.317-1.805-.942-1.653-2.046.2-1.326,1.353-1.817,2.639-1.817a7.115,7.115,0,0,1,2.258.364l-.452,1.107a7.585,7.585,0,0,0-1.967-.29c-.671,0-1.018.29-1.075.684-.076.536.585.711,1.362.9,1.087.246,1.854.8,1.692,1.94a2.47,2.47,0,0,1-2.757,2.017A8.323,8.323,0,0,1,855.56,779.359Z" transform="translate(-686.008 -722.001)" fill="#fff"/>
    <path id="Caminho_584" data-name="Caminho 584" d="M884.392,778.245h-2.066l-.642,1.476h-1.4l3.037-6.581h1.613l1.183,6.583h-1.476Zm-.546-3.443-1.087,2.344h1.527l-.423-2.344Z" transform="translate(-704.649 -722.107)" fill="#fff"/>
    <path id="Caminho_585" data-name="Caminho 585" d="M910.25,779.882l.922-6.532h2.44c2.247,0,2.7,1.375,2.439,3.219s-1.1,3.313-3.352,3.313Zm2.6-1.171c1.229,0,1.616-.846,1.8-2.142s.029-2.039-1.21-2.039h-1.114l-.588,4.181Z" transform="translate(-727.249 -722.265)" fill="#fff"/>
    <path id="Caminho_586" data-name="Caminho 586" d="M940.5,778.245h-2.063l-.644,1.476h-1.4l3.035-6.581h1.613l1.158,6.583h-1.461Zm-.546-3.443-1.087,2.344h1.527l-.411-2.351Z" transform="translate(-746.961 -722.107)" fill="#fff"/>
    <path id="Caminho_587" data-name="Caminho 587" d="M966.556,796.9l.423-1.249h-.509l.192-1.392h1.247l-.192,1.392-.777,1.249Z" transform="translate(-769.644 -738.033)" fill="#fff"/>
    <path id="Caminho_588" data-name="Caminho 588" d="M994.456,776.51a1.312,1.312,0,0,1,.959,1.586,2.078,2.078,0,0,1-2.334,1.786H990.13l.912-6.532h2.767c1.365,0,2.009.615,1.854,1.672a1.785,1.785,0,0,1-1.2,1.476Zm-2.636.615-.211,1.586h1.414c.556,0,.942-.185,1.028-.8s-.261-.787-.856-.787Zm1.672-2.594h-1.3l-.2,1.414h1.3c.558,0,.866-.2.942-.711s-.185-.7-.743-.7Z" transform="translate(-787.485 -722.265)" fill="#fff"/>
    <path id="Caminho_589" data-name="Caminho 589" d="M1021.48,779.882l-1.045-2.324h-.952l-.317,2.324h-1.326l.912-6.532h2.786a1.693,1.693,0,0,1,1.872,2.1,2.16,2.16,0,0,1-1.564,1.884l1.171,2.545Zm-1.825-3.507h1.3a1.01,1.01,0,0,0,1.106-.922c.106-.676-.27-.922-.816-.922h-1.326Z" transform="translate(-808.381 -722.265)" fill="#fff"/>
    <path id="Caminho_590" data-name="Caminho 590" d="M1048.712,778.245h-2.066l-.644,1.476h-1.4l3.035-6.581h1.613l1.163,6.581h-1.461Zm-.549-3.443-1.085,2.344h1.527l-.423-2.344Z" transform="translate(-828.56 -722.107)" fill="#fff"/>
    <path id="Caminho_591" data-name="Caminho 591" d="M1077.716,773a7.221,7.221,0,0,1,2.306.364l-.452,1.107a7.222,7.222,0,0,0-1.911-.29c-1.21,0-1.721.836-1.921,2.134-.192,1.392.106,2.238,1.316,2.238a8.279,8.279,0,0,0,1.987-.288l.135,1.1a8.225,8.225,0,0,1-2.258.354l-.057.413c.317.039.777.174.7.7-.067.462-.462.76-1.087.76a2.794,2.794,0,0,1-.767-.116l.135-.393a2.164,2.164,0,0,0,.45.057.458.458,0,0,0,.509-.374c.029-.192-.116-.354-.43-.394l.1-.664c-2.029-.123-2.373-1.613-2.125-3.4C1074.605,774.461,1075.422,773,1077.716,773Z" transform="translate(-850.937 -722.001)" fill="#fff"/>
    <path id="Caminho_592" data-name="Caminho 592" d="M1100.838,776.275c.261-1.844,1.077-3.315,3.372-3.315s2.7,1.476,2.44,3.315-1.085,3.408-3.382,3.408S1100.579,778.134,1100.838,776.275Zm1.394,0c-.185,1.3-.1,2.3,1.19,2.3s1.652-1.008,1.835-2.3.086-2.213-1.2-2.213S1102.424,774.976,1102.232,776.275Z" transform="translate(-870.916 -721.971)" fill="#fff"/>
    <path id="Caminho_593" data-name="Caminho 593" d="M1146.421,774.53h-3.005l-.231,1.586h2.575l-.165,1.173h-2.565l-.364,2.592h-1.326l.912-6.532h4.323Z" transform="translate(-901.51 -722.265)" fill="#fff"/>
    <path id="Caminho_594" data-name="Caminho 594" d="M1166.356,776.275c.246-1.844,1.075-3.315,3.372-3.315s2.7,1.476,2.439,3.315-1.087,3.408-3.381,3.408S1166.095,778.134,1166.356,776.275Zm1.392,0c-.182,1.3-.1,2.3,1.19,2.3s1.653-1.008,1.834-2.3.089-2.213-1.2-2.213S1167.937,774.976,1167.747,776.275Z" transform="translate(-920.321 -721.971)" fill="#fff"/>
    <path id="Caminho_595" data-name="Caminho 595" d="M1199.12,779.882l-1.048-2.324h-.952l-.315,2.324h-1.325l.912-6.532h2.784a1.7,1.7,0,0,1,1.874,2.1,2.163,2.163,0,0,1-1.566,1.884l1.173,2.545Zm-1.825-3.507h1.3a1.008,1.008,0,0,0,1.1-.922c.106-.676-.268-.922-.816-.922h-1.326Z" transform="translate(-942.336 -722.265)" fill="#fff"/>
    <path id="Caminho_596" data-name="Caminho 596" d="M1227.857,774.53l-.738,5.351h-1.326l.738-5.351h-1.721l.155-1.18h4.756l-.155,1.18Z" transform="translate(-964.453 -722.265)" fill="#fff"/>
    <path id="Caminho_597" data-name="Caminho 597" d="M1253.509,774.53h-3.1l-.2,1.394h2.671l-.172,1.171h-2.661l-.221,1.616h3.14l-.163,1.171h-4.468l.912-6.532h4.426Z" transform="translate(-982.19 -722.265)" fill="#fff"/>
  </g>
</svg>
