<svg id="Camada_1" data-name="Camada 1" xmlns="http://www.w3.org/2000/svg" width="329.98" height="93.955" viewBox="0 0 329.98 93.955">
  <path id="Caminho_21" data-name="Caminho 21" d="M632.255,53H617.868c-6.065,0-9.455,2.946-10.361,9L604.7,80.773c-.469,3.152,0,5.477,1.39,7.112s3.61,2.4,6.729,2.4H627.2c6.065,0,9.455-2.942,10.361-9l2.805-18.773c.473-3.152,0-5.48-1.386-7.112s-3.6-2.4-6.729-2.4m-3.784,27.762a1.825,1.825,0,0,1-.209.722.787.787,0,0,1-.274.033H613.767a.769.769,0,0,1,.029-.242L616.6,62.5a1.826,1.826,0,0,1,.209-.722.743.743,0,0,1,.274-.036h14.221a2.4,2.4,0,0,1-.029.242Z" transform="translate(-386.279 -33.866)" fill="#fd5000"/>
  <path id="Caminho_22" data-name="Caminho 22" d="M737.992,53H723.605c-6.069,0-9.459,2.946-10.361,9l-2.809,18.773c-.473,3.152,0,5.477,1.39,7.112s3.61,2.4,6.726,2.4h14.387c6.069,0,9.459-2.942,10.365-9l2.805-18.773c.473-3.152.018-5.48-1.39-7.112s-3.6-2.4-6.726-2.4M734.2,80.762a1.676,1.676,0,0,1-.209.722.741.741,0,0,1-.271.033H719.5a.769.769,0,0,1,.029-.242L722.338,62.5a1.747,1.747,0,0,1,.209-.722.7.7,0,0,1,.271-.036h14.224a.768.768,0,0,1-.029.242Z" transform="translate(-453.842 -33.866)" fill="#fd5000"/>
  <path id="Caminho_23" data-name="Caminho 23" d="M533.212,80.937H513.356a2.336,2.336,0,0,1-2.372-2.783l2.1-14.329a3.318,3.318,0,0,1,3.177-2.769h19.856l1.292-8.805h-22.5a11.158,11.158,0,0,0-10.672,9.307L501.471,80.42a7.848,7.848,0,0,0,7.942,9.307h22.51Z" transform="translate(-320.367 -33.387)" fill="#fd5000"/>
  <path id="Caminho_24" data-name="Caminho 24" d="M299.546,55.03a10.921,10.921,0,0,0-3.686,6.592c-1.083,7.4,1.141,9.574,7.942,11.971l10.74,3.765a1.74,1.74,0,0,1,1.206,1.321,1.874,1.874,0,0,1-.451,1.372,2.776,2.776,0,0,1-1.989.91H293.022l-1.292,8.805h22.513a10.686,10.686,0,0,0,6.989-2.74,10.924,10.924,0,0,0,3.682-6.6c1.083-7.4-1.137-9.571-7.942-11.971L306.243,64.7a1.708,1.708,0,0,1-1.083-2.134,2.346,2.346,0,0,1,2.332-1.469h20.275l1.289-8.805H306.532a10.654,10.654,0,0,0-6.986,2.74" transform="translate(-186.411 -33.412)" fill="#fff"/>
  <path id="Caminho_25" data-name="Caminho 25" d="M424.987,94.43l-3.267,22.26H430.9l3.267-22.26Z" transform="translate(-269.472 -60.339)" fill="#fff"/>
  <path id="Caminho_26" data-name="Caminho 26" d="M404.063,52.29,402.72,61.1h31.568l1.292-8.805Z" transform="translate(-257.331 -33.412)" fill="#fff"/>
  <path id="Caminho_27" data-name="Caminho 27" d="M848.689,55.4c-1.4-1.617-3.6-2.4-6.744-2.4H819.8l-1.278,8.56h22.517a.769.769,0,0,1-.029.242l-.874,5.43a1.871,1.871,0,0,1-.209.722.9.9,0,0,1-.274.032h-13V67.95h-9.091L814.23,90.272H823.4l1.978-13.527h13.506c6.069,0,9.455-2.946,10.361-9l.83-5.242C850.549,59.358,850.094,57.029,848.689,55.4Z" transform="translate(-520.278 -33.866)" fill="#fd5000"/>
  <path id="Caminho_28" data-name="Caminho 28" d="M86.55,23.181l-.1-4.975L60.21,0H26.274L.093,18.412.02,23.376c-.271,17.6,2.737,32.347,8.935,43.835A52.422,52.422,0,0,0,40.512,93.038l2.931.917,2.928-.931A52.417,52.417,0,0,0,77.813,67.056C83.957,55.539,86.9,40.8,86.55,23.181Z" transform="translate(-0.004)" fill="#fd5000"/>
  <path id="Caminho_29" data-name="Caminho 29" d="M84.672,77.258A44.1,44.1,0,0,1,58.206,99.114l-2.033.646-2.04-.639A44.172,44.172,0,0,1,27.555,77.387c-5.26-9.773-7.816-22.372-7.581-37.452l.054-3.451L41.714,21.22H70.282L92.037,36.3l.069,3.459c.3,15.076-2.2,27.69-7.433,37.485" transform="translate(-12.755 -13.559)" fill="#100c08"/>
  <path id="Caminho_30" data-name="Caminho 30" d="M90.546,33.014l-.054-2.672L88.3,28.819,69.029,15.461l-1.347-.931H37.112l-1.354.953L16.548,28.989l-2.166,1.534-.04,2.664c-.253,16.509,2.527,30.261,8.246,40.867A47.212,47.212,0,0,0,51.025,97.312l1.57.491,1.574-.5A47.216,47.216,0,0,0,82.5,73.921C88.16,63.286,90.875,49.524,90.546,33.014ZM68,83.882l-5.809-6.137H42.614L36.9,83.781C26.122,74.51,20.6,59.863,19.682,41.011v-.256c-.025-.574-.051-1.152-.069-1.733h0c-.018-.585-.029-1.17-.04-1.762V33.267L38.758,19.754H66.033l19.3,13.358h0C85.763,55.856,80.3,73.344,68,83.882Z" transform="translate(-9.155 -9.284)" fill="#fff"/>
  <path id="Caminho_31" data-name="Caminho 31" d="M69.91,155.98v4.48c0,.628.841,1.195,2.119,1.422l5-.079S69.91,155.669,69.91,155.98Z" transform="translate(-44.672 -99.661)" fill="#fff"/>
  <path id="Caminho_32" data-name="Caminho 32" d="M60.4,82.819l-1.845.516a.812.812,0,0,0-.477.7L58,91.231a.744.744,0,0,0,.213.57l1.567,1.083a.39.39,0,0,0,.65-.274l.458-9.441a.361.361,0,0,0-.487-.35Z" transform="translate(-37.059 -52.905)" fill="#fff"/>
  <path id="Caminho_33" data-name="Caminho 33" d="M74.1,130.408,72.221,120.17c-.13-.783-2.311-2.04-2.311-2.04v7.809C69.91,127.614,74.1,130.408,74.1,130.408Z" transform="translate(-44.672 -75.483)" fill="#fff"/>
  <path id="Caminho_34" data-name="Caminho 34" d="M94.72,158.5l.361,1.3a.722.722,0,0,0,.505.509l2.332.625a.606.606,0,0,0,.181.025h11.419a.606.606,0,0,0,.181-.025l2.332-.625a.722.722,0,0,0,.505-.509l.361-1.3Z" transform="translate(-60.525 -101.278)" fill="#fff"/>
  <path id="Caminho_35" data-name="Caminho 35" d="M90.172,59.5h16.809s-.8-5.968-3.971-5.968H77.341c-3.184,0-3.971,5.968-3.971,5.968H90.183Z" transform="translate(-46.883 -34.205)" fill="#fff"/>
  <path id="Caminho_36" data-name="Caminho 36" d="M90.6,142.56l.422,1.509a.838.838,0,0,0,.588.6l2.722.722a.812.812,0,0,0,.209.029h13.275a.812.812,0,0,0,.209-.029l2.722-.722a.838.838,0,0,0,.588-.6l.422-1.509Z" transform="translate(-57.893 -91.093)" fill="#fff"/>
  <path id="Caminho_37" data-name="Caminho 37" d="M150.18,161.807l5,.079c1.274-.227,2.116-.794,2.116-1.422V155.98C157.3,155.669,150.18,161.807,150.18,161.807Z" transform="translate(-95.963 -99.661)" fill="#fff"/>
  <path id="Caminho_38" data-name="Caminho 38" d="M176.6,84.034a.812.812,0,0,0-.477-.7l-1.845-.516a.361.361,0,0,0-.495.361l.466,9.437a.39.39,0,0,0,.65.274l1.567-1.083a.744.744,0,0,0,.213-.57Z" transform="translate(-111.048 -52.9)" fill="#fff"/>
  <path id="Caminho_39" data-name="Caminho 39" d="M160.171,120.17l-1.881,10.239s4.191-2.794,4.191-4.469V118.13S160.3,119.386,160.171,120.17Z" transform="translate(-101.145 -75.483)" fill="#fff"/>
  <path id="Caminho_40" data-name="Caminho 40" d="M105.012,79.78H70.906l-.946,8.664a9.024,9.024,0,0,0-.051.939v1.444a46.116,46.116,0,0,0,8.354,1.318h19.39a46.116,46.116,0,0,0,8.354-1.318V89.383a9.026,9.026,0,0,0-.051-.939Z" transform="translate(-44.672 -50.978)" fill="#fff"/>
  <path id="Caminho_41" data-name="Caminho 41" d="M110.2,127.265l.48-1.715H86.71l.466,1.715a.964.964,0,0,0,.668.671l3.087.827a.9.9,0,0,0,.238.032h15.022a.9.9,0,0,0,.238-.032l3.087-.827a.957.957,0,0,0,.682-.671Z" transform="translate(-55.407 -80.224)" fill="#fff"/>
  <path id="Caminho_42" data-name="Caminho 42" d="M293.76,217.712l1.339-9.592h1.946l2.989,6.022h.029l.845-6.022h1.877l-1.339,9.592h-1.935L296.5,211.9h-.029l-.816,5.812Z" transform="translate(-187.708 -132.985)" fill="#fff"/>
  <path id="Caminho_43" data-name="Caminho 43" d="M327.376,215.4h-3.033l-.946,2.166H321.34l4.455-9.661h2.372l1.715,9.668h-2.166Zm-.805-5.054-1.592,3.441h2.242l-.621-3.441Z" transform="translate(-205.331 -132.85)" fill="#fff"/>
  <path id="Caminho_44" data-name="Caminho 44" d="M356.057,207.73a10.516,10.516,0,0,1,3.386.538l-.664,1.621a10.568,10.568,0,0,0-2.805-.422c-1.776,0-2.527,1.227-2.82,3.13-.282,2.043.155,3.285,1.931,3.285a11.957,11.957,0,0,0,2.917-.422l.2,1.621a11.943,11.943,0,0,1-3.314.523l-.083.607c.466.054,1.141.253,1.029,1.029-.1.675-.679,1.112-1.592,1.112a4.1,4.1,0,0,1-1.13-.166l.2-.581a3.173,3.173,0,0,0,.661.087.668.668,0,0,0,.747-.549c.043-.285-.17-.523-.632-.581l.141-.971c-2.978-.184-3.484-2.368-3.119-4.993C351.494,209.889,352.693,207.73,356.057,207.73Z" transform="translate(-224.286 -132.735)" fill="#fff"/>
  <path id="Caminho_45" data-name="Caminho 45" d="M382.226,211.4h-3.033l-.946,2.166H376.19l4.455-9.661h2.372l1.7,9.661h-2.144Zm-2.166-8.025-.495-.451c.621-1.014,1.213-1.282,1.708-1.282.69,0,1.3.621,1.776.621.256,0,.538-.1.989-.578l.394.549c-.534.845-1.029,1.13-1.538,1.13s-1.213-.581-1.747-.581c-.289,0-.531.072-1.079.592Zm1.354,2.964-1.592,3.441h2.242l-.621-3.441Z" transform="translate(-240.379 -128.844)" fill="#fff"/>
  <path id="Caminho_46" data-name="Caminho 46" d="M405.971,212.6c.383-2.708,1.581-4.867,4.95-4.867s3.971,2.166,3.585,4.867-1.6,5.007-4.964,5.007S405.592,215.333,405.971,212.6Zm2.047,0c-.267,1.9-.141,3.386,1.747,3.386s2.426-1.484,2.693-3.386.126-3.249-1.762-3.249S408.3,210.694,408.018,212.6Z" transform="translate(-259.344 -132.735)" fill="#fff"/>
  <path id="Caminho_47" data-name="Caminho 47" d="M448.882,214.326l-.466,3.386H446.47l1.339-9.592h4.09a2.49,2.49,0,0,1,2.737,3.1,3.437,3.437,0,0,1-3.61,3.1Zm.253-1.718h1.931a1.444,1.444,0,0,0,1.581-1.383,1.06,1.06,0,0,0-1.184-1.368h-1.946Z" transform="translate(-285.287 -132.985)" fill="#fff"/>
  <path id="Caminho_48" data-name="Caminho 48" d="M481.419,209.856h-4.556l-.3,2.043h3.921l-.253,1.722h-3.906L476,215.99h4.61l-.238,1.722H473.82l1.339-9.592h6.5Z" transform="translate(-302.763 -132.985)" fill="#fff"/>
  <path id="Caminho_49" data-name="Caminho 49" d="M499.37,217.087l.549-1.621a13.464,13.464,0,0,0,3.249.422c.989,0,1.635-.451,1.722-1.083.126-.888-.946-1.083-2.033-1.379-1.578-.466-2.65-1.383-2.422-3,.282-1.935,1.96-2.682,3.863-2.682a10.343,10.343,0,0,1,3.314.538l-.664,1.621a11.09,11.09,0,0,0-2.888-.422c-.986,0-1.495.422-1.578,1-.112.791.859,1.043,2,1.325,1.592.383,2.722,1.173,2.48,2.848-.3,2.047-2,2.964-4.047,2.964A12.1,12.1,0,0,1,499.37,217.087Z" transform="translate(-319.089 -132.742)" fill="#fff"/>
  <path id="Caminho_50" data-name="Caminho 50" d="M530.173,215.4h-3.029l-.946,2.166H524.14l4.455-9.661h2.354l1.708,9.661h-2.144Zm-.8-5.054-1.6,3.441h2.242l-.617-3.441Z" transform="translate(-334.916 -132.85)" fill="#fff"/>
  <path id="Caminho_51" data-name="Caminho 51" d="M554.06,217.712l1.339-9.592h3.581c3.3,0,3.971,2.018,3.581,4.726s-1.621,4.867-4.921,4.867Zm3.823-1.722c1.805,0,2.368-1.242,2.635-3.145s.043-2.989-1.776-2.989h-1.635l-.863,6.137Z" transform="translate(-354.035 -132.985)" fill="#fff"/>
  <path id="Caminho_52" data-name="Caminho 52" d="M586.236,215.4H583.2l-.946,2.166H580.2l4.455-9.661h2.368l1.708,9.661h-2.144Zm-.805-5.054-1.6,3.441h2.246l-.621-3.441Z" transform="translate(-370.737 -132.85)" fill="#fff"/>
  <path id="Caminho_53" data-name="Caminho 53" d="M610.406,232.9l.621-1.83h-.747l.282-2.047H612.4l-.282,2.047-1.144,1.83Z" transform="translate(-389.958 -146.339)" fill="#fff"/>
  <path id="Caminho_54" data-name="Caminho 54" d="M640.29,212.783a1.929,1.929,0,0,1,1.412,2.325c-.242,1.635-1.444,2.625-3.43,2.625H633.94l1.339-9.592h4.061c2,0,2.95.9,2.722,2.455a2.621,2.621,0,0,1-1.762,2.166Zm-3.863.9-.31,2.325h2.072c.82,0,1.383-.267,1.509-1.17s-.383-1.155-1.256-1.155Zm2.451-3.809h-1.9l-.3,2.072h1.9c.82,0,1.271-.3,1.383-1.043s-.267-1.036-1.087-1.036Z" transform="translate(-405.076 -132.997)" fill="#fff"/>
  <path id="Caminho_55" data-name="Caminho 55" d="M666.968,217.712l-1.534-3.415h-1.4l-.48,3.415H661.61l1.339-9.592h4.09a2.491,2.491,0,0,1,2.751,3.09,3.184,3.184,0,0,1-2.3,2.765l1.719,3.737Zm-2.69-5.148h1.906a1.482,1.482,0,0,0,1.621-1.354c.155-.993-.4-1.354-1.2-1.354h-1.946Z" transform="translate(-422.757 -132.985)" fill="#fff"/>
  <path id="Caminho_56" data-name="Caminho 56" d="M694.446,215.4h-3.033l-.946,2.166H688.41l4.455-9.661h2.372l1.69,9.668h-2.141Zm-.805-5.054-1.592,3.441h2.242l-.614-3.448Z" transform="translate(-439.882 -132.85)" fill="#fff"/>
  <path id="Caminho_57" data-name="Caminho 57" d="M723.139,207.73a10.509,10.509,0,0,1,3.383.538l-.661,1.621a10.607,10.607,0,0,0-2.809-.422c-1.776,0-2.527,1.227-2.82,3.13-.282,2.043.155,3.285,1.932,3.285a12,12,0,0,0,2.921-.422l.195,1.621a11.942,11.942,0,0,1-3.314.523l-.083.607c.466.054,1.141.253,1.029,1.029-.1.675-.675,1.112-1.592,1.112a4.1,4.1,0,0,1-1.13-.166l.2-.581a3.209,3.209,0,0,0,.664.087.675.675,0,0,0,.747-.549c.04-.285-.17-.523-.635-.581l.137-.986c-2.975-.184-3.484-2.368-3.116-4.993C718.568,209.889,719.767,207.73,723.139,207.73Z" transform="translate(-458.841 -132.735)" fill="#fff"/>
  <path id="Caminho_58" data-name="Caminho 58" d="M744.681,212.6c.383-2.708,1.581-4.867,4.95-4.867s3.971,2.166,3.585,4.867-1.6,5.007-4.964,5.007S744.3,215.333,744.681,212.6Zm2.047,0c-.271,1.9-.141,3.386,1.747,3.386s2.426-1.484,2.693-3.386.126-3.249-1.762-3.249S747.01,210.694,746.728,212.6Z" transform="translate(-475.773 -132.735)" fill="#fff"/>
  <path id="Caminho_59" data-name="Caminho 59" d="M792.639,209.856h-4.412l-.339,2.325h3.78l-.242,1.722H787.66l-.534,3.809H785.18l1.339-9.592h6.347Z" transform="translate(-501.716 -132.985)" fill="#fff"/>
  <path id="Caminho_60" data-name="Caminho 60" d="M810.2,212.6c.361-2.708,1.578-4.867,4.95-4.867s3.971,2.166,3.581,4.867-1.592,5.007-4.964,5.007S809.815,215.333,810.2,212.6Zm2.043,0c-.267,1.9-.141,3.386,1.751,3.386s2.422-1.484,2.693-3.386.126-3.249-1.765-3.249-2.4,1.347-2.693,3.249Z" transform="translate(-517.636 -132.735)" fill="#fff"/>
  <path id="Caminho_61" data-name="Caminho 61" d="M844.652,217.712l-1.538-3.415h-1.383l-.466,3.415H839.32l1.329-9.592h4.09a2.487,2.487,0,0,1,2.747,3.09,3.177,3.177,0,0,1-2.3,2.765l1.719,3.737Zm-2.679-5.148h1.9a1.484,1.484,0,0,0,1.625-1.354c.155-.993-.4-1.354-1.2-1.354h-1.946Z" transform="translate(-536.31 -132.985)" fill="#fff"/>
  <path id="Caminho_62" data-name="Caminho 62" d="M873.083,209.856,872,217.712h-1.946l1.083-7.856H868.61l.224-1.736h6.982l-.227,1.736Z" transform="translate(-555.026 -132.985)" fill="#fff"/>
  <path id="Caminho_63" data-name="Caminho 63" d="M899.743,209.856h-4.556l-.3,2.043h3.921l-.253,1.722h-3.906l-.325,2.368h4.621l-.238,1.722H892.14l1.343-9.592h6.5Z" transform="translate(-570.061 -132.985)" fill="#fff"/>
</svg>
