<svg xmlns="http://www.w3.org/2000/svg" width="562.401" height="579.121" viewBox="0 0 562.401 579.121">
  <g id="Map_Layer" data-name="Map Layer" transform="translate(1.205 1)">
    <path id="Caminho_181" data-name="Caminho 181" d="M434.9,29.915l-6.588,7.076.775,2.358-6.2,7.076L419.4,58.61l-7.363,5.9-6.2.393-5.813,3.145-8.526-1.965-4.506-6.152,1.565,11.091,12.915,4.722,3.523,5.9,4.3,2.754,1.174,10.231,8.61,3.935.391,5.115,2.348,1.968,1.565,6.69,2.987-1.445,7.751-11.4,6.975-4.324,4.263-7.076,8.138-9.827,3.1-10.613-6.976-1.179h0l-6.588-14.937-1.55-14.151-2.325,3.538L438,33.846l-3.1-3.931Z" transform="translate(-112.921 -20.468)" fill="#b9b9b9" stroke="#3a3a3a" stroke-miterlimit="10" stroke-width="2" fill-rule="evenodd"/>
    <path id="Caminho_182" data-name="Caminho 182" d="M460.01,63.477l-.451,5.4,2.705-.415-2.254-4.983Z" transform="translate(-121.28 -24.338)" fill="#b9b9b9" stroke="#3a3a3a" stroke-miterlimit="10" stroke-width="2" fill-rule="evenodd"/>
    <path id="Caminho_183" data-name="Caminho 183" d="M379.3,64.657l-5.088-1.18-5.871,1.574-3.914-1.181,1.174,4.722-1.957,3.149-8.219-.394-2.74,1.967-4.7.393-5.089-3.541-1.174,3.149L334.3,76.069l-2.74-.394-3.914,1.575L328.425,80l-2.348,1.575-5.712-.463.546,10.359,3.2,15.5,6.4,4.226,2.842,9.509,14.645.615,3.913,4.329,7.737,1.748-6.172,7.3-26.222,55.484,5.088,17.708,7.436,16.527,10.3,10.513,97.6,1.215,12.49-20.812-.3-2.754,1.633-11.379-2.349-4.329,9.246-3.268,3.351-13.773-2.133-3.979-2.636-.229.783-5.9,9.394-3.148,12.132-15.346-1.566-9.445,11.35-11.805,5.089-15.346c-.813-.655,4.359-3.663-.617-2.488l-3.171-2.75-2.812.658-4.751-2.5L483.41,104.4l-7.437,1.18-5.479,5.9v4.722l1.174,1.18-3.131.787-1.957-1.18-10.959,14.953,2.348-10.231L434.488,122.9l30.919-7.084,5.088-15.346L463.058,98.1l-19.177,1.968-4.3,12.592-3.914-1.574-17.612,9.05-1.957,11.805-1.957-7.083,2.348-6.3-13.7,3.935,12.915-6.3-1.566-6.69-2.348-1.968-.392-5.115-8.61-3.935-1.175-10.231-4.3-2.754-3.522-5.9L380.87,74.888,379.3,64.657Z" transform="translate(-105.234 -24.338)" fill="#b9b9b9" stroke="#3a3a3a" stroke-miterlimit="10" stroke-width="2" fill-rule="evenodd"/>
    <path id="Caminho_184" data-name="Caminho 184" d="M446.369,107.717l-6.763,2.368-3.14,6.156.483,1.657-3.382,3.315,7.729-1.894h0l5.8-4.5-.725-7.1Z" transform="translate(-118.289 -29.44)" fill="#b9b9b9" stroke="#3a3a3a" stroke-miterlimit="10" stroke-width="2" fill-rule="evenodd"/>
    <path id="Caminho_185" data-name="Caminho 185" d="M460.01,87.885l-.451,4.049,2.705-.311-2.254-3.737Z" transform="translate(-121.28 -27.153)" fill="#b9b9b9" stroke="#3a3a3a" stroke-miterlimit="10" stroke-width="2" fill-rule="evenodd"/>
    <path id="Caminho_186" data-name="Caminho 186" d="M471.909,97.882l-5.153,1.856-1.546-.844h-4.122l1.288-1.856,9.533.844Z" transform="translate(-121.454 -28.209)" fill="#b9b9b9" stroke="#3a3a3a" stroke-miterlimit="10" stroke-width="2" fill-rule="evenodd"/>
    <path id="Caminho_187" data-name="Caminho 187" d="M456.148,97.038l-1.04,5.4-1.665-1.408,2.705-3.99Z" transform="translate(-120.577 -28.209)" fill="#b9b9b9" stroke="#3a3a3a" stroke-miterlimit="10" stroke-width="2" fill-rule="evenodd"/>
    <path id="Caminho_188" data-name="Caminho 188" d="M310.146,76.013l-4.922-2.1L297.49,65.5l.351-7.71-5.976-1.051,1.406-5.958,2.812-5.958-1.055-7.36,4.922-3.154-5.273-4.556h-1.758L291.513,27.3l.351-8.061h-5.977V25.9L276.4,28.349l-2.109,2.8-8.437,2.8-6.328.351-8.086,4.907-6.68-.35-4.219-.351-8.789-5.257,7.383,8.411-2.812,5.257,1.406,8.411,6.679.351,4.922,2.8-.7,3.855,4.055,2.868,4.712,11.771,4.7,19.508.248,4.055,9.844,9.113,1.758-7.71,5.976-4.907,2.813,4.206,8.086-.351-1.055-7.01,5.977-2.453,1.1-6.471,13.858,1.409-.547-10.359Z" transform="translate(-95.076 -19.236)" fill="#b9b9b9" stroke="#3a3a3a" stroke-miterlimit="10" stroke-width="2" fill-rule="evenodd"/>
    <path id="Caminho_189" data-name="Caminho 189" d="M228.488,67.964l-7.772,3.953L219.3,76.848l-3.909,3.17-3.2-2.113-2.487,3.17-8.884,1.761-4.975,4.931-4.975-.7-3.553,1.761-7.818-6.34-3.2,1.409-3.2-2.465-1.066-6.339-1.777-3.522-3.2,3.874-3.909,1.409L159.6,70.508l-1.421,4.226-17.412.352-1.777,2.465,3.909,1.761,4.619,1.057,1.421,4.578-2.487,5.987-3.2.7-4.975-2.465-2.843,3.17,2.487,10.566,3.553,3.522v4.931L145.739,117l-7.818,44.024-2.132,1.761-3.554-2.113-9.594-.352-3.909,2.465-10.66,2.113-12.082,6.692-5.686,13.031.711,3.522-9.594,7.044-1.286,6.469,23.644,5.72,25.258,5.773,55.789,22.892,19.544.7,1.777-2.465,4.619-1.761-1.066-6.691,13.148-5.635-.355-6.692,8.173-5.635h8.173l3.2,7.4,14.925,4.579,2.54,2.473,40.455-1.77,2.846-4.97-1.423-5.325,2.964-2.846-4.8-16.7,26.222-55.484,6.172-7.3-7.737-1.747-3.914-4.329-14.644-.615-2.843-9.509-6.4-4.226-3.2-15.5-13.858-1.409-1.1,6.471-5.977,2.453,1.055,7.01-8.086.351-2.812-4.206-5.977,4.907-1.758,7.71-9.844-9.113-.248-4.055-4.7-19.508-4.712-11.771Z" transform="translate(-77.65 -24.856)" fill="#b9b9b9" stroke="#3a3a3a" stroke-miterlimit="10" stroke-width="2" fill-rule="evenodd"/>
    <path id="Caminho_190" data-name="Caminho 190" d="M79.811,219.081,77.326,223l5.325,7.479,8.875,9.972v6.41l-1.42,3.561,8.875.712,6.745,6.767,8.875-2.137,2.84-3.561,4.615-7.835,4.26,1.425v2.493l-1.42,2.849,2.485,5.342,1.065,7.835,1.775,2.137,6.035-3.918,12.07.712,9.94,7.123,2.84-7.123,4.97-2.137,12.07-1.781,6.356-5.859L129.867,231.19,79.811,219.081Z" transform="translate(-77.326 -42.211)" fill="#b9b9b9" stroke="#3a3a3a" stroke-miterlimit="10" stroke-width="2" fill-rule="evenodd"/>
    <path id="Caminho_191" data-name="Caminho 191" d="M238.631,231.735l.355,6.691-13.148,5.635,1.066,6.691-4.619,1.761-2.224,6.605.306,11.236,4.992,11.355,6.419,2.839,2.5,4.258,10.341-.355,3.566,3.194,3.566-1.065,7.489,7.807,4.636-.71,3.566,4.968,13.551,1.774L288.342,308l2.846-3.55-1.642-7.837,6.267-2.1-1.067-2.485,2.846-4.26-4.27-5.68.356-5.042v-3.832l-7.472-3.55-6.4,1.775-1.779-3.55-5.693-1.065,2.135-16.329-1.779-7.1,2.952-2.845-2.54-2.473L258.175,233.5l-3.2-7.4H246.8Z" transform="translate(-93.732 -43.013)" fill="#b9b9b9" stroke="#3a3a3a" stroke-miterlimit="10" stroke-width="2" fill-rule="evenodd"/>
    <path id="Caminho_192" data-name="Caminho 192" d="M442.92,254.842,356,253.627H345.323l-10.674-11L327.3,225.577l-2.964,2.846,1.423,5.325-2.846,4.97-40.561,1.775-2.847,2.84,1.779,7.1-2.135,16.329,5.693,1.065,1.779,3.549,6.4-1.775,7.472,3.55v4.97l-.356,3.9,4.27,5.68-2.847,4.26,1.068,2.485-6.268,2.1L298,304.391l-2.846,3.55,2.846,9.23-.356,13.844-1.779,1.42,3.914,10.295,10.674,3.194,7.827-1.775,8.9,2.84V351.6l1.067,11.36,6.405,2.485,4.269,9.585,8.539-12.424,2.846,1.775,7.611-4.2,8.7,4.471,5.166,2.658,6.755-4.277,4.621,2.495,6.645-3.99,2.953.425.356,6.416,4.372,3.974,1.839-1.347-1.782-5.352,2.495-10.705v-3.568l7.842-1.071.783-5.811,6.048-5.325,7.472.355-1.423-8.874,4.625-2.84,2.135,1.42,3.914-8.165v-4.261l2.135-4.26V308.3l2.847-4.26v-3.9l1.779-5.325-2.136-6.034,1.423-5.325-2.135-2.485-.035-5,6.794-11.683Z" transform="translate(-100.507 -42.94)" fill="#b9b9b9" stroke="#3a3a3a" stroke-miterlimit="10" stroke-width="2" fill-rule="evenodd"/>
    <path id="Caminho_193" data-name="Caminho 193" d="M346.487,391.28,337.6,413.733l3.555,6.059-3.91,4.277,4.976,7.841.356,2.138L339.022,448.3l1.422,2.495h22.75l3.2,1.069,3.2-1.426,3.555,3.92,3.555,22.454,3.2,1.069,6.043-3.564,9.3,5.715,1.992-3.988,5.41-9.568,20.616-19.6,11.375-19.6,4.976-5.7,1.132-8.56-8.714-1.973-3.921-5.71L424.2,406.4l-7.128-3.568-6.772-1.784-2.138-5.353-3.373-1.21-.6-4.58-4.372-3.974-.355-6.415-2.844-.356-6.754,3.921-4.621-2.495-6.754,4.277-13.863-7.128-7.465,3.921-2.993-1.5-7.671,11.123Z" transform="translate(-107.196 -60.436)" fill="#b9b9b9" stroke="#3a3a3a" stroke-miterlimit="10" stroke-width="2" fill-rule="evenodd"/>
    <path id="Caminho_194" data-name="Caminho 194" d="M402.124,490.769,396.873,513.2l7.352,2.453,3.182,11.425,6.4,2.856,3.908-2.142,2.487,2.5,20.252,5,1.421-6.783,9.238-6.426,11.37,3.927,5.685-3.927,8.882,4.284,1.755-.608v-4.881l-1.057-2.068,3.151-3.5-3.851-1.752,3.151-2.453,2.1-.35,1.75,4.205,2.1-3.855-.35-5.958-3.851,1.051-5.252-3.154-2.45-7.009h-8.4l-3.8-7.158,1.348-10.365-4.551-3.5-9.1,2.8-9-4.827h-8.167l-1.065-2.119-15.224-.063-6.752,6.42-7.4,13.555Z" transform="translate(-114.052 -71.143)" fill="#b9b9b9" stroke="#3a3a3a" stroke-miterlimit="10" stroke-width="2" fill-rule="evenodd"/>
    <path id="Caminho_195" data-name="Caminho 195" d="M408.641,533.762l1.776,9.282-2.842,5.712H425.34l6.751,3.57,13.146,5,7.461,13.209,9.263-2.083,1.071,3.181-5.714,9.543L461.246,584l13.834-13.112h1.777v-5l3.2.357.355-8.568.355-6.426,3.908-4.284-3.908-1.785-2.487-12.138-8.882-4.284-5.685,3.927-11.369-3.927L443.1,535.19l-1.421,6.783-20.252-5-2.487-2.5-3.908,2.142-6.4-2.856Z" transform="translate(-115.285 -77.782)" fill="#b9b9b9" stroke="#3a3a3a" stroke-miterlimit="10" stroke-width="2" fill-rule="evenodd"/>
    <path id="Caminho_196" data-name="Caminho 196" d="M400.7,551.362,379.731,560.8l-10.714,8.483-8.928,16.26L347.947,596.5l8.214,2.121,3.571,4.949,4.643-.707,5.357,8.836,3.214-3.181,2.857.354,19.285,17.673,4.285.707,8.928,12.371,5.357-2.121,4.285-6.716-2.5,11.665-2.5-.707-6.428,3.535v10.251l3.214-4.242,1.786-4.241,3.214-3.535,1.071,3.535,6.785-16.26-.357-4.948,3.571-6.363,3.928-.707,2.143-5.655,3.928-4.6-2.5-4.242,4.642,2.121,6.785-2.121-2.143,4.6-4.643,7.423-.357,3.181-5.357,1.768-7.142,6.008v3.888l18.928-16.613,10.356-27.924-3.928-2.828,5.714-9.544-1.071-3.181-9.285,2.121-7.439-13.246-13.146-5-6.75-3.57Z" transform="translate(-108.424 -80.388)" fill="#b9b9b9" stroke="#3a3a3a" stroke-miterlimit="10" stroke-width="2" fill-rule="evenodd"/>
    <path id="Caminho_197" data-name="Caminho 197" d="M488.325,500.036l.349,1.945,17.8-16.1,6.392-1.413h0L521.033,482h6.037l7.1-7.063c-.2-1.059.717-2.119-.6-3.179l3.8-8.476-1.591-5.019-15.366.358-.444,5.015-12.429,2.472.356-7.769.71-6.357-.71-6.71-8.168-4.237-.745-5.764-5.307-4.6-14.544,1.886-11.718-1.06-5.682-4.944-12.706.651-4.976,5.7-11.375,19.6-13.865,13.182,15.224.063,1.066,2.119h8.167l9,4.827,9.1-2.8,4.551,3.505-1.347,10.364,3.8,7.158h8.4l2.713,7.322,4.989,2.841,2.006-.548Z" transform="translate(-116.564 -66.055)" fill="#b9b9b9" stroke="#3a3a3a" stroke-miterlimit="10" stroke-width="2" fill-rule="evenodd"/>
    <path id="Caminho_198" data-name="Caminho 198" d="M552.329,476.52l4.773-.486-4.945-4.125,2.473-2.406,3.179,1.375h9.89l7.418-4.125v4.813l18.721-.687-2.12-8.25,12.009-5.5V445.715l-8.491-.381-5.02-5.051-5.564,2.406,2.882,3.008L584,447.112l1.416,6.721-3.538,2.83-4.245-2.122-23,6.367-3.892-1.061,1.591,5.019-3.8,8.476h0a3.624,3.624,0,0,1,.64,2.19l-.036.988Z" transform="translate(-131.495 -67.645)" fill="#b9b9b9" stroke="#3a3a3a" stroke-miterlimit="10" stroke-width="2" fill-rule="evenodd"/>
    <path id="Caminho_199" data-name="Caminho 199" d="M610.7,439.7l8.821-7.835,1.47-11.4,8.454-10.684.564-13.271-9.215-5.339-7.154-2.759,1.1,6.411-6.616-.356-.3,6.334-4.6,2.122,7.11,7.214-1.1,5.7-3.177.884-3.072,8.02H596l-.368,9.972,4.779,4.63,10.292.356Z" transform="translate(-136.89 -61.677)" fill="#b9b9b9" stroke="#3a3a3a" stroke-miterlimit="10" stroke-width="2" fill-rule="evenodd"/>
    <path id="Caminho_200" data-name="Caminho 200" d="M604.344,384.488l-.354-4.983-2.835-1.068v-3.559l2.27-6.553,1.617-4.669,1.784-5.15-3.9-6.762-8.506-2.136-4.253,1.068-11.342-9.61-5.316,1.779-4.781-3.912-3.538-1.415-2.123-4.245h-5.307l-2.477,2.83-5.307-5.66L538.3,332.921l-.354,3.184-10.261,4.952-7.7,2.5-.355-1.424,1.418-1.779-7.165-4.6-1.415,2.123,1.415,3.184-2.123,1.061L510,340l-1.415,2.83,1.769,4.6-2.831.354,1.769,4.952-8.845,9.9,3.538,6.721-4.246,5.66,3.184,1.769.354,2.83-3.184,2.476.354,4.6-8.37,5.695-8.554-2.141-6.772,5-15.683,5L454.1,407.56l-1.132,8.56,12.706-.651,5.682,4.944,11.718,1.06,14.544-1.886,5.307,4.6.745,5.763,8.167,4.238.71,6.71-1.065,14.127,12.671-2.539h0l.2-4.948,15.366-.358,3.892,1.061,23-6.367L570.852,444l3.538-2.83-1.415-6.721,3.538-1.415-2.881-3.007,5.564-2.406.352-9.56h6.983l3.072-8.02,3.177-.884,1.1-5.7-7.109-7.214,4.6-2.122.3-6.334,6.616.356-1.1-6.411Z" transform="translate(-120.437 -54.995)" fill="#b9b9b9" stroke="#3a3a3a" stroke-miterlimit="10" stroke-width="2" fill-rule="evenodd"/>
    <path id="Caminho_201" data-name="Caminho 201" d="M516.434,336.784l1.772-9.61-3.9-2.847-1.772-4.271,2.481-6.762-1.418-3.559,3.544-1.068-1.063-2.847-2.407-.768-23.367,6.684-4.277-3.212-8.554,1.784-1.069-6.423-6.772-.714-4.277,6.78-7.619-10.471-4.126,3.849-1.779,5.325v3.905l-2.846,4.26v4.26l-2.135,4.26v4.26l-3.914,8.165-2.135-1.42-4.625,2.84,1.423,8.875-7.472-.355-6.119,5.07-.713,6.066-7.841,1.07v3.568l-2.5,10.705,1.782,5.353-1.839,1.347.6,4.58,3.373,1.21,2.138,5.353,6.772,1.784,7.129,3.569,3.921-1.071,3.921,5.709,8.911,1.784,6.772-7.137,15.683-5,6.772-5,8.554,2.141,8.37-5.7-.354-4.6,3.184-2.476-.354-2.83-3.184-1.769,4.246-5.66-3.538-6.721,8.845-9.9-1.769-4.952,2.831-.354-1.769-4.6,1.415-2.83,1.769,2.122,2.123-1.061-1.415-3.184,1.415-2.122Z" transform="translate(-115.89 -51.442)" fill="#b9b9b9" stroke="#3a3a3a" stroke-miterlimit="10" stroke-width="2" fill-rule="evenodd"/>
    <path id="Caminho_202" data-name="Caminho 202" d="M607.988,249.748l-5.108-8.469-6.335-2.1-5.623,2.706L586,245.068l-6.008,4.324-4.253,1.424-5.316-3.915-3.19,1.78-3.544-2.491-2.126,3.2,1.751,8.068-2.983,2.1-2.295,5.819-4.818.7-4.36,2.561-8.031-1.4-5.277-4.19-3.9-.7-2.339.924-5.131,3.85.305,3.061-3.047,4.591.914,1.53,4.874,2.755.609,2.754-2.742,8.876,1.1,7.408,2.408.768,1.063,2.847-3.544,1.068,1.418,3.559-2.481,6.762,1.772,4.271,3.9,2.847-1.772,9.61-1.417,1.78.354,1.424,7.7-2.5,10.26-4.952.354-3.184,11.676-2.476,5.307,5.66,2.477-2.83h5.307l2.123,4.245,3.538,1.415,4.781,3.911,5.316-1.78,11.342,9.61,4.253-1.068,8.506,2.136,3.9,6.762-5.671,16.372v3.559l2.835,1.068.354,4.983,9.215,5.339h0l6.734-9.254-1.772-6.406,3.9-23.491-2.127-3.559,2.127-4.983-.708-9.61,1.772-10.677,1.772-10.678,1.418-4.627,3.544,4.627,15.79-22.563-6.466-2.78-3.3-1.834.232-4.383,2.79-3.691-.187-3.188-5.625-1.2.465-3.46-7.6-7.8-3.544.712-2.127-3.2-9.57-5.695-4.607,5.695-4.224,1.657Z" transform="translate(-128.333 -44.504)" fill="#b9b9b9" stroke="#3a3a3a" stroke-miterlimit="10" stroke-width="2" fill-rule="evenodd"/>
    <path id="Caminho_203" data-name="Caminho 203" d="M522.682,257.132l-5.484-2.449V251.01l-3.35-2.449.3-3.06-3.656-2.755-2.437-3.978-3.047-.918,1.828-2.449,1.829-.612V229.28l5.787,1.531v-2.755l-2.437-1.836,3.047-5.2-3.351-.612-3.961,4.285-4.265-6.121-4.874-3.061q-.153-7.038-.305-14.078l-4.874-14.385-8.226,3.06,2.133,3.979-3.351,13.773-9.246,3.268,2.239,4.689-1.523,11.019.3,2.754L463.277,250.4l-.914,9.794-6.7,11.324.034,5,1.969,2.292-1.258,5.518,2.136,6.034,4.125-3.849,3.946,5.423,3.673,5.048,4.278-6.78,6.772.714,1.07,6.424,8.554-1.784,4.277,3.211,23.367-6.684-1.1-7.408,2.742-8.876-.609-2.754-4.874-2.755-.914-1.53,3.046-4.591-.3-3.061,6.093-3.978Z" transform="translate(-120.816 -38.52)" fill="#b9b9b9" stroke="#3a3a3a" stroke-miterlimit="10" stroke-width="2" fill-rule="evenodd"/>
    <path id="Caminho_204" data-name="Caminho 204" d="M528.715,241.9l-2.524-6.983,2.983-6.285.459-10.475L549.6,207.45l3.671-4.888,4.13-1.862,5.966,2.793,3.442-8.148-3.671-10.01,7.8-9.311-2.286-2.6-1.845-2.1-.5-4.749,5.553-8.706,10.325-8.846L583,141.74l-6.587-.233-14.82-6.537-.941,2.1-4.94-.7-3.058,3.268-3.529-.467.941,5.6h-3.529l-2.352-3.968,2.352-8.171-4.234,2.1,2.117-5.136-2.823-6.77-7.292,2.334-.706,2.568-1.882-2.568,1.176-3.035-7.763-3.735-1.63,1.768-.239.8-5.088,15.347-11.35,11.8,1.566,9.444-11.871,15.016-9.655,3.479-.783,5.9,2.636.229,8.225-3.061,4.428,14.437.751,14.026L507,210.651l4.255,5.791,3.97-3.954,3.351.612-3.046,5.2,2.437,1.836v2.755l-5.788-1.53v5.509l-1.828.612-1.828,2.448,3.047.918L514,234.83l3.656,2.754-.3,3.06,3.351,2.448v3.673l4.522,2.578,2.339-.924Z" transform="translate(-124.303 -30.629)" fill="#b9b9b9" stroke="#3a3a3a" stroke-miterlimit="10" stroke-width="2" fill-rule="evenodd"/>
    <path id="Caminho_205" data-name="Caminho 205" d="M598.99,227.1l8.092-7.451-.63-11.25,2.065-5.587V197.69l-3.9.7-1.606-12.8-2.065-2.561-3.9-12.8,2.524-6.053-.918-6.751-3.659-3.413,2.053-6.83-8.816-2.392-.821,7.281-10.326,8.846-5.553,8.706.5,4.749,4.13,4.7-7.8,9.311,3.671,10.01-3.442,8.147-5.966-2.793L558.5,205.6l-3.672,4.888L534.861,221.2l-.459,10.475-2.983,6.285,2.524,6.983-1.148,6.518,3.9.7,5.277,4.19,8.031,1.4,4.36-2.561,4.819-.7,2.294-5.82,2.983-2.1-1.752-8.068,2.127-3.2,3.544,2.491,3.19-1.78,5.316,3.915,4.253-1.424L592.074,231l5.83-2.706Z" transform="translate(-129.485 -33.663)" fill="#b9b9b9" stroke="#3a3a3a" stroke-miterlimit="10" stroke-width="2" fill-rule="evenodd"/>
    <path id="Caminho_206" data-name="Caminho 206" d="M668.656,279.511l3.255-7.382,8.369-4.383,1.068-1.73-5.338-6.71-4.409.24-6.73-5.752-15.519-2.22,7.215,7.406-.465,3.461,5.347.923.465,3.46-2.79,3.691-.232,4.383,2.79,1.615,6.974,3Z" transform="translate(-143.086 -45.95)" fill="#b9b9b9" stroke="#3a3a3a" stroke-miterlimit="10" stroke-width="2" fill-rule="evenodd"/>
    <path id="Caminho_207" data-name="Caminho 207" d="M681.3,264.555l4.873-2.876-.232-3.355,7.658-6.231,5.57-10.065-5.337-3.115-5.57,2.636-4.409-.959-1.16,6.471-4.409-1.678-4.873,3.115-3.249-2.636-.7-3.116-2.321-.959-2.32,2.157-2.089-3.595-2.916,3-10.9,6.367.385.395,15.519,2.22,6.73,5.752,4.409-.24,5.338,6.71Z" transform="translate(-143.035 -44.494)" fill="#b9b9b9" stroke="#3a3a3a" stroke-miterlimit="10" stroke-width="2" fill-rule="evenodd"/>
    <path id="Caminho_208" data-name="Caminho 208" d="M694.256,238.861l4.058-14.794-.7-12.614-4.458,1.168-1.173,6.307-3.755-1.4-3.285,2.336.939,3.271-3.051-.234-2.346-2.1-7.274,3.97-1.173,4.672-3.754-.467-1.642-3.037-3.285.7-1.174-3.5,3.05-2.569v-3.271l2.112.467.7-3.27-4.359,1.644-3,1.148-6.47.919-4.938,4.7-4.692-3.971-7.039,3.5-8.213-7.708-3.754-.935-3.989,2.336c-2.018.825-6.288-2.087-6.054,2.476l.187,8.736-9.385,8.642,6.335,2.1,5.108,8.469,6.379-2.491,4.608-5.695,6.335,3.77,3.234,1.924,2.126,3.2,3.545-.712,10.9-6.366,2.915-3,2.089,3.594,2.321-2.157,2.32.959.7,3.116,3.25,2.635,4.873-3.115,4.409,1.677,1.161-6.47,4.409.959,5.57-2.636Z" transform="translate(-138.125 -41.336)" fill="#b9b9b9" stroke="#3a3a3a" stroke-miterlimit="10" stroke-width="2" fill-rule="evenodd"/>
    <path id="Caminho_209" data-name="Caminho 209" d="M701.545,209.355l-2.311-8.5-4.6-.286-6.487-.4-3.544,1.1-2.695-1.563L676.59,202l2.268,3.183-2.737,3.218-3.694-5.292-3.986,1.426-2.017-1.157-2.265-1.421,2.986-3.456,3.9-.176.514-4.166-7.171-1.648-.919,4.608-1.378-.23L657.5,201.5l-2.165,4.639-9.243.919.693,2.527,2.542,1.378.693,4.135-.85,1.645,4.693,3.971,4.938-4.7,6.47-.919,3-1.149,1.543,1.159v3.27l-3.05,2.569,1.173,3.5,3.285-.7,1.642,3.037,3.754.467,1.173-4.672,7.274-3.971,2.347,2.1,3.05.234-.938-3.27,3.285-2.336,3.754,1.4,1.173-6.307,3.81-1.082Z" transform="translate(-142.709 -39.158)" fill="#b9b9b9" stroke="#3a3a3a" stroke-miterlimit="10" stroke-width="2" fill-rule="evenodd"/>
    <path id="Caminho_210" data-name="Caminho 210" d="M697.532,189.5l-2.756-6.221L684.9,181.9h-3.675l-5.742-.691-.689-1.613-2.756.922-3.215-4.148-7.58,6.452-3.216,7.373-7.35,5.991.459,2.765,4.135-.691,2.756,1.382,4.594-4.608,1.378.23.919-4.608,7.172,1.648-.514,4.166-3.9.176-2.986,3.456,4.594,2.765,3.675-1.613,3.694,5.292,2.738-3.218,5.742-3.917,3.544-1.1,11.092.689Z" transform="translate(-143.238 -37.302)" fill="#b9b9b9" stroke="#3a3a3a" stroke-miterlimit="10" stroke-width="2" fill-rule="evenodd"/>
    <path id="Caminho_211" data-name="Caminho 211" d="M657.514,171.556l-2.605-5.4-6.157-2.816-14.21-12.44h-3.789l-8.763-6.572-16.816,2.816-1.895,6.807,3.659,3.413.918,6.751-2.524,6.052,3.9,12.8,2.065,2.561,1.606,12.8,3.9-.7v5.121l-1.447,5.413,5.445.329,4.422-2.453,3.754.935,8.212,7.708,7.039-3.5.869-1.357-.712-4.424-2.542-1.378-.693-2.527,2.39-.136,6.853-.783,2.165-4.638-2.756-1.383-4.134.691-.47-3.276,7.361-5.48,3.216-7.373,7.58-6.452Z" transform="translate(-137.772 -33.615)" fill="#b9b9b9" stroke="#3a3a3a" stroke-miterlimit="10" stroke-width="2" fill-rule="evenodd"/>
  </g>
</svg>
