<svg id="Camada_2" data-name="Camada 2" xmlns="http://www.w3.org/2000/svg" width="189.343" height="36.063" viewBox="0 0 189.343 36.063">
  <g id="Camada_1" data-name="Camada 1">
    <path id="Caminho_613" data-name="Caminho 613" d="M121.67,31.309V27.2h13.351v4.109h-4.386V45.18h-4.546V31.309Z" transform="translate(-81.1 -18.137)" fill="#003770"/>
    <path id="Caminho_614" data-name="Caminho 614" d="M280.43,35.885v9.272h-4.7V27.17H277.2l9.376,8.792V27.17h4.7V45.16h-1.389Z" transform="translate(-183.79 -18.117)" fill="#003770"/>
    <path id="Caminho_615" data-name="Caminho 615" d="M332.233,38.894c0,1.233,1.412,1.846,2.851,1.846,1.335,0,2.75-.613,2.75-1.693,0-1.716-2-1.793-3.314-1.869-3.288-.207-6.575-1.516-6.575-5.258,0-3.9,3.311-5.871,6.986-5.871,3.468,0,6.986,1.972,6.909,5.871h-4.392c-.027-1.229-1.182-1.743-2.44-1.743-1.055,0-2.44.28-2.44,1.639,0,1.206,1.028,1.486,2.747,1.666,3.828.333,7.166,1.233,7.166,5.591,0,3.768-3.671,5.744-7.343,5.744-3.8,0-7.446-1.9-7.37-5.924Z" transform="translate(-218.475 -17.354)" fill="#003770"/>
    <path id="Caminho_616" data-name="Caminho 616" d="M226.844,27.17h-2.16L216.44,44.52v.641h4.906l4.393-10.14,4.419,10.14h4.853V44.52Z" transform="translate(-144.271 -18.117)" fill="#003770"/>
    <path id="Caminho_617" data-name="Caminho 617" d="M178.872,38.8a6.3,6.3,0,0,0,2.67-5.24,6.164,6.164,0,0,0-6.472-6.372c-2.647-.027-5.24,0-7.91,0V45.163h4.619v-13.9h3.261a1.79,1.79,0,0,1,1.953,1.963c0,1.131-.587,1.792-1.953,2.37-2.57,1.085-.668,4.055-.668,4.055l3,5.507h4.983V44.5Z" transform="translate(-111.422 -18.12)" fill="#003770"/>
    <path id="Caminho_618" data-name="Caminho 618" d="M384.189,27.18a8.582,8.582,0,0,1,8.875,8.9c.08,4.529-2.907,9.082-8.875,9.082H377.32V27.18Zm-.05,13.738c2.854,0,4.219-2.393,4.219-4.783s-1.442-4.736-4.219-4.736H382.03v9.519Z" transform="translate(-251.506 -18.124)" fill="#afca0b"/>
    <path id="Caminho_619" data-name="Caminho 619" d="M441.445,31.275H434.69v2.567H440.7v4.112H434.69v2.927h6.756V45.17H430V27.19h11.458Z" transform="translate(-286.617 -18.13)" fill="#afca0b"/>
    <path id="Caminho_620" data-name="Caminho 620" d="M474.233,38.894c0,1.233,1.412,1.846,2.85,1.846,1.335,0,2.75-.613,2.75-1.693,0-1.716-2-1.793-3.314-1.869-3.288-.207-6.575-1.516-6.575-5.258,0-3.9,3.314-5.871,6.986-5.871,3.468,0,6.986,1.972,6.909,5.871h-4.392c-.023-1.229-1.182-1.743-2.44-1.743-1.051,0-2.44.28-2.44,1.639,0,1.206,1.028,1.486,2.75,1.666,3.825.333,7.166,1.233,7.166,5.591,0,3.768-3.672,5.744-7.343,5.744-3.8,0-7.45-1.9-7.373-5.924Z" transform="translate(-313.144 -17.354)" fill="#afca0b"/>
    <path id="Caminho_621" data-name="Caminho 621" d="M540.119,45.187h4.763V44.5c-1.746-2.647-6.245-8.321-6.245-8.321,1.722-2.647,4.5-5.674,6.245-8.321V27.17h-4.763L533.4,36.4Z" transform="translate(-355.538 -18.117)" fill="#afca0b"/>
    <rect id="Retângulo_11" data-name="Retângulo 11" width="4.7" height="18.017" transform="translate(173.162 9.053)" fill="#afca0b"/>
    <path id="Caminho_622" data-name="Caminho 622" d="M4.766,15.709a13.508,13.508,0,0,1,26.562,0h4.766A18.221,18.221,0,0,0,0,15.709Z" transform="translate(0 0.003)" fill="#003770"/>
    <path id="Caminho_623" data-name="Caminho 623" d="M31.328,61.07A13.468,13.468,0,0,1,20.4,71.9V63.5l-4.716,3.458V71.9A13.468,13.468,0,0,1,4.766,61.07H0a18.221,18.221,0,0,0,36.094,0Z" transform="translate(0 -40.718)" fill="#afca0b"/>
    <path id="Caminho_624" data-name="Caminho 624" d="M44.8,47.08H26.42v4.66h6.862v3.982Z" transform="translate(-17.602 -31.384)" fill="#003770"/>
  </g>
</svg>
