<svg xmlns="http://www.w3.org/2000/svg" width="189.921" height="67.234" viewBox="0 0 189.921 67.234">
  <g id="Logo" transform="translate(-11.735 -11.735)">
    <path id="Caminho_625" data-name="Caminho 625" d="M399.242,174.647v-9.128a6.945,6.945,0,0,0-6.937-6.939H373.66v5.658H392.3a1.283,1.283,0,0,1,1.28,1.281v9.128a1.281,1.281,0,0,1-1.28,1.28H373.66v16.039h8.549V186.38h-2.89v-4.8h6.05l7.051,10.38H399l-6.742-10.38h.047A6.947,6.947,0,0,0,399.242,174.647Z" transform="translate(-311.685 -129.983)" fill="#fab300"/>
    <path id="Caminho_626" data-name="Caminho 626" d="M186.285,165.519a6.945,6.945,0,0,0-6.937-6.939H157.94v5.658h2.771v22.183h5.659v-7.879h12.351a1.916,1.916,0,0,1,1.914,1.914v4.69a1.281,1.281,0,0,1-1.28,1.28H166.362v5.658h12.986a6.945,6.945,0,0,0,6.937-6.937v-4.69a7.539,7.539,0,0,0-1.689-4.762,7.59,7.59,0,0,0,1.689-4.783Zm-5.658,5.392a1.973,1.973,0,0,1-1.97,1.972h-12.3v-8.645h12.986a1.283,1.283,0,0,1,1.28,1.281Z" transform="translate(-129.461 -129.983)" fill="#fab300"/>
    <path id="Caminho_627" data-name="Caminho 627" d="M634.292,159.28h-5.074c-2.161,0-3.217,1.042-3.217,3.214v7.244c0,2.161,1.05,3.211,3.211,3.211h5.074c2.159,0,3.21-1.05,3.21-3.211V167.98H634.7v1.759c0,.52-.171.56-.414.56h-5.071c-.244,0-.416-.04-.416-.56v-7.244c0-.52.172-.56.416-.56h5.074c.244,0,.414.04.414.56v1.761H637.5v-1.761C637.5,160.322,636.451,159.28,634.292,159.28Z" transform="translate(-524.86 -130.581)" fill="#fab300"/>
    <path id="Caminho_628" data-name="Caminho 628" d="M723.01,172.95h10.771V170.3h-7.975V167.44H733.6v-2.651h-7.794V161.93h7.975v-2.65H723.01Z" transform="translate(-606.813 -130.581)" fill="#fab300"/>
    <path id="Caminho_629" data-name="Caminho 629" d="M824.01,169.529l-4.433-10.249H815.31v13.67h2.8V162.7l4.415,10.248H826.8V159.28h-2.8Z" transform="translate(-684.786 -130.581)" fill="#fab300"/>
    <path id="Caminho_630" data-name="Caminho 630" d="M910.79,172.95h2.8V161.93h4.35v-2.65H906.44v2.65h4.35Z" transform="translate(-761.771 -130.581)" fill="#fab300"/>
    <path id="Caminho_631" data-name="Caminho 631" d="M1008.46,170.3h-7.975V167.44h7.793v-2.651h-7.793V161.93h7.975v-2.65H997.69v13.67h10.77Z" transform="translate(-838.858 -130.581)" fill="#fab300"/>
    <path id="Caminho_632" data-name="Caminho 632" d="M1101.4,165.414V162.52c0-2.161-1.05-3.21-3.209-3.21H1089.9v13.665h2.792v-4.344h2.865l2.536,4.344h3.239l-2.555-4.378C1100.534,168.414,1101.4,167.37,1101.4,165.414Zm-8.7-3.459h5.49c.242,0,.414.04.414.56v2.9c0,.52-.172.56-.414.56h-5.49Z" transform="translate(-916.746 -130.607)" fill="#fab300"/>
    <path id="Caminho_633" data-name="Caminho 633" d="M625.46,289.37h4.35v11.02h2.8V289.37h4.35v-2.65H625.46Z" transform="translate(-524.404 -238.238)" fill="#fab300"/>
    <path id="Caminho_634" data-name="Caminho 634" d="M724.985,286.72H716.7v13.67h2.792v-4.344h2.864l2.538,4.344h3.238l-2.543-4.378c1.758-.181,2.614-1.227,2.614-3.182v-2.9C728.2,287.77,727.14,286.72,724.985,286.72Zm-5.488,2.65h5.488c.244,0,.416.04.416.56v2.9c0,.518-.172.558-.416.558H719.5Z" transform="translate(-601.482 -238.238)" fill="#fab300"/>
    <path id="Caminho_635" data-name="Caminho 635" d="M822.508,297.18c0,.52-.172.558-.416.558h-5.074c-.244,0-.416-.039-.416-.558V286.72H813.81v10.46c0,2.159,1.05,3.21,3.211,3.21h5.071c2.161,0,3.211-1.05,3.211-3.21V286.72h-2.792Z" transform="translate(-683.519 -238.238)" fill="#fab300"/>
    <path id="Caminho_636" data-name="Caminho 636" d="M919.054,286.72H913.98c-2.161,0-3.21,1.05-3.21,3.21v7.251c0,2.159,1.049,3.21,3.21,3.21h5.074c2.161,0,3.211-1.05,3.211-3.21V295.42h-2.792v1.761c0,.52-.172.558-.416.558H913.98c-.244,0-.414-.039-.414-.558V289.93c0-.52.171-.56.414-.56h5.074c.244,0,.416.04.416.56v1.761h2.792V289.93C922.265,287.77,921.215,286.72,919.054,286.72Z" transform="translate(-765.429 -238.238)" fill="#fab300"/>
    <path id="Caminho_637" data-name="Caminho 637" d="M1016.719,286.72l-3.208,5.51h-2.865v-5.51h-2.8v13.67h2.8v-5.51h2.865l3.208,5.51h3.237l-3.987-6.835,3.987-6.835Z" transform="translate(-847.44 -238.238)" fill="#fab300"/>
    <rect id="Retângulo_13" data-name="Retângulo 13" width="5.806" height="11.151" transform="translate(195.844 39.761)" fill="#fab300"/>
    <path id="Caminho_638" data-name="Caminho 638" d="M234.106,100.315V111.42H55.81V55.81h178.3V66.848h5.81v-12.5A4.346,4.346,0,0,0,235.569,50H54.346A4.346,4.346,0,0,0,50,54.346v58.543a4.346,4.346,0,0,0,4.346,4.346H235.575a4.346,4.346,0,0,0,4.346-4.346V100.316Z" transform="translate(-38.265 -38.265)" fill="#fab300"/>
  </g>
</svg>
