<svg id="Logo" xmlns="http://www.w3.org/2000/svg" width="373.463" height="301.613" viewBox="0 0 373.463 301.613">
  <path id="Caminho_682" data-name="Caminho 682" d="M1007.772,618.2H983.846c-10.093,0-15.731,4.893-17.238,14.968l-4.665,31.221c-.787,5.248,0,9.114,2.312,11.828s6,4,11.186,4h23.926c10.093,0,15.731-4.9,17.232-14.968l4.671-31.221c.781-5.241,0-9.108-2.312-11.822s-6-4-11.186-4m-6.286,46.183a2.842,2.842,0,0,1-.348,1.2,1.16,1.16,0,0,1-.45.06H977.031a1.277,1.277,0,0,1,.048-.4l4.671-31.221a2.959,2.959,0,0,1,.348-1.2,1.4,1.4,0,0,1,.45-.054h23.656a1.277,1.277,0,0,1-.048.4Z" transform="translate(-773.95 -430.489)" fill="#fff"/>
  <path id="Caminho_683" data-name="Caminho 683" d="M1113.5,618.2h-23.92c-10.093,0-15.731,4.893-17.238,14.968l-4.671,31.221c-.781,5.248,0,9.114,2.312,11.828s6,4,11.192,4H1105.1c10.087,0,15.725-4.9,17.232-14.968l4.671-31.221c.781-5.241,0-9.108-2.312-11.822s-6-4-11.191-4m-6.292,46.189a2.968,2.968,0,0,1-.348,1.2,1.237,1.237,0,0,1-.456.06h-23.644a1.277,1.277,0,0,1,.048-.4l4.665-31.221a3.1,3.1,0,0,1,.348-1.2,1.5,1.5,0,0,1,.456-.054h23.65a1.278,1.278,0,0,1-.048.4Z" transform="translate(-816.237 -430.489)" fill="#fff"/>
  <path id="Caminho_684" data-name="Caminho 684" d="M911.448,665.2H878.426a3.885,3.885,0,0,1-3.927-4.611l3.506-23.824a5.524,5.524,0,0,1,5.284-4.611h33.023l2.149-14.644H881.007c-8.55,0-16.5,6.935-17.754,15.485l-4.605,31.365c-1.255,8.55,4.659,15.479,13.209,15.479h37.435Z" transform="translate(-732.689 -430.213)" fill="#fff"/>
  <path id="Caminho_685" data-name="Caminho 685" d="M661.849,622.087a18.21,18.21,0,0,0-6.13,10.969c-1.8,12.309,1.9,15.917,13.209,19.91l17.838,6.286a2.9,2.9,0,0,1,2.005,2.2,3.128,3.128,0,0,1-.75,2.282,4.647,4.647,0,0,1-3.308,1.507H651l-2.149,14.644h37.441a17.73,17.73,0,0,0,11.624-4.557,18.181,18.181,0,0,0,6.13-10.963c1.8-12.314-1.9-15.923-13.209-19.91L672.98,638.2a2.839,2.839,0,0,1-1.8-3.554c.408-1.195,1.573-2.342,3.879-2.444h33.713l2.15-14.644H673.473a17.761,17.761,0,0,0-11.624,4.557" transform="translate(-648.85 -430.233)" fill="#fff"/>
  <path id="Caminho_686" data-name="Caminho 686" d="M784.284,659.65l-5.434,37.027h15.269l5.434-37.027Z" transform="translate(-700.837 -447.055)" fill="#fff"/>
  <path id="Caminho_687" data-name="Caminho 687" d="M762.078,617.51l-2.228,14.644h52.5L814.5,617.51Z" transform="translate(-693.243 -430.194)" fill="#fff"/>
  <path id="Caminho_688" data-name="Caminho 688" d="M1228.659,622.2c-2.318-2.7-6-4-11.186-4h-36.847l-2.131,14.23h37.448a4.011,4.011,0,0,1-.048.4l-1.429,9.054a2.907,2.907,0,0,1-.348,1.2,1.159,1.159,0,0,1-.45.06h-21.615v-.066H1176.9l-5.554,37.129h15.256l3.29-22.5h22.461c10.093,0,15.731-4.9,17.238-14.974l1.375-8.712C1231.781,628.785,1231,624.919,1228.659,622.2Z" transform="translate(-857.818 -430.489)" fill="#fff"/>
  <path id="Caminho_689" data-name="Caminho 689" d="M984.046,343.922l-.162-8.274L940.24,305.37H883.8l-43.524,30.621-.126,8.256c-.444,29.27,4.557,53.8,14.866,72.9,11.408,21.188,29.09,35.64,52.482,42.953l4.875,1.525,4.863-1.549c23.356-7.421,40.954-21.951,52.289-43.187C979.735,397.737,984.622,373.186,984.046,343.922Zm-46.051,85.51L928.31,419.19H895.75l-9.5,10.075c-17.9-15.418-27.108-39.777-28.627-71.13v-.426c-.048-.955-.084-1.915-.114-2.882h0c0-.967-.054-1.939-.072-2.924v-6.629l31.948-22.479H934.74l32.044,22.215h0C967.511,382.811,958.433,411.907,937.994,429.433Z" transform="translate(-725.372 -305.37)" fill="#fff"/>
  <path id="Caminho_690" data-name="Caminho 690" d="M910,461.367v7.451c0,1.045,1.393,1.981,3.518,2.366l8.316-.132S910,460.845,910,461.367Z" transform="translate(-753.282 -367.744)" fill="#fff"/>
  <path id="Caminho_691" data-name="Caminho 691" d="M902.087,388.193l-3.074.865a1.339,1.339,0,0,0-.786,1.171l-.138,11.96a1.237,1.237,0,0,0,.36.949l2.6,1.8a.648.648,0,0,0,1.081-.456l.775-15.719a.6.6,0,0,0-.817-.57Z" transform="translate(-748.516 -338.475)" fill="#fff"/>
  <path id="Caminho_692" data-name="Caminho 692" d="M916.975,443.92l-3.122-17.034c-.216-1.3-3.843-3.386-3.843-3.386v12.981C910,439.273,916.975,443.92,916.975,443.92Z" transform="translate(-753.285 -352.611)" fill="#fff"/>
  <path id="Caminho_693" data-name="Caminho 693" d="M934.82,463.87l.6,2.155a1.2,1.2,0,0,0,.841.847l3.879,1.039a1.04,1.04,0,0,0,.3.042h19a1.04,1.04,0,0,0,.3-.042l3.879-1.039a1.2,1.2,0,0,0,.841-.847l.6-2.155Z" transform="translate(-763.212 -368.752)" fill="#fff"/>
  <path id="Caminho_694" data-name="Caminho 694" d="M941.4,368.825h27.955s-1.321-9.925-6.6-9.925H920.064c-5.3,0-6.6,9.925-6.6,9.925Z" transform="translate(-754.677 -326.76)" fill="#fff"/>
  <path id="Caminho_695" data-name="Caminho 695" d="M930.69,447.92l.7,2.516a1.423,1.423,0,0,0,.985.991l4.521,1.2a1.382,1.382,0,0,0,.348.042H959.33a1.381,1.381,0,0,0,.348-.042l4.521-1.2a1.423,1.423,0,0,0,.985-.991l.7-2.516Z" transform="translate(-761.562 -362.374)" fill="#fff"/>
  <path id="Caminho_696" data-name="Caminho 696" d="M990.28,471.052l8.316.132c2.125-.384,3.518-1.321,3.518-2.366v-7.451C1002.12,460.845,990.28,471.052,990.28,471.052Z" transform="translate(-785.385 -367.744)" fill="#fff"/>
  <path id="Caminho_697" data-name="Caminho 697" d="M1017.78,389.057l-3.074-.865a.6.6,0,0,0-.817.6l.774,15.719a.649.649,0,0,0,1.081.456l2.6-1.8a1.237,1.237,0,0,0,.36-.949l-.138-11.96A1.339,1.339,0,0,0,1017.78,389.057Z" transform="translate(-794.824 -338.475)" fill="#fff"/>
  <path id="Caminho_698" data-name="Caminho 698" d="M1001.512,426.886,998.39,443.92s6.965-4.647,6.965-7.439V423.5S1001.758,425.6,1001.512,426.886Z" transform="translate(-788.627 -352.611)" fill="#fff"/>
  <path id="Caminho_699" data-name="Caminho 699" d="M968.388,385.15H911.661l-1.567,14.41a13.743,13.743,0,0,0-.084,1.567v2.4s8.76,2.191,13.887,2.191h32.254c5.127,0,13.887-2.191,13.887-2.191v-2.4a13.715,13.715,0,0,0-.084-1.567Z" transform="translate(-753.298 -337.274)" fill="#fff"/>
  <path id="Caminho_700" data-name="Caminho 700" d="M965.873,433.762l.792-2.852H926.81l.792,2.852a1.6,1.6,0,0,0,1.117,1.123l5.134,1.375a1.421,1.421,0,0,0,.39.054h24.989a1.423,1.423,0,0,0,.39-.054l5.133-1.375A1.6,1.6,0,0,0,965.873,433.762Z" transform="translate(-760.011 -355.572)" fill="#fff"/>
  <path id="Caminho_701" data-name="Caminho 701" d="M650,789.285l2.228-15.947h3.236l4.941,10h.048l1.4-10.015h3.152l-2.233,15.947h-3.212l-5.019-9.661H654.5l-1.363,9.661Z" transform="translate(-649.31 -492.505)" fill="#fff"/>
  <path id="Caminho_702" data-name="Caminho 702" d="M687.569,785.6h-5.043l-1.573,3.6H677.53l7.409-16.067h3.939l2.84,16.067h-3.566ZM686.23,777.2l-2.648,5.722h3.729l-1.033-5.722Z" transform="translate(-660.31 -492.433)" fill="#fff"/>
  <path id="Caminho_703" data-name="Caminho 703" d="M715.624,773a17.642,17.642,0,0,1,5.632.889l-1.1,2.7a17.656,17.656,0,0,0-4.665-.708c-2.954,0-4.2,2.041-4.7,5.212-.468,3.4.258,5.464,3.218,5.464a20.192,20.192,0,0,0,4.851-.7l.33,2.7a20.109,20.109,0,0,1-5.488.841l-.138,1.009c.768.1,1.9.426,1.711,1.711-.168,1.129-1.129,1.855-2.654,1.855a6.791,6.791,0,0,1-1.873-.282l.324-.961a5.4,5.4,0,0,0,1.1.138,1.117,1.117,0,0,0,1.243-.912c.072-.469-.282-.865-1.057-.961l.234-1.621c-4.947-.3-5.788-3.939-5.181-8.3C708.028,776.566,710.022,773,715.624,773Z" transform="translate(-672.184 -492.377)" fill="#fff"/>
  <path id="Caminho_704" data-name="Caminho 704" d="M742.419,783.1h-5.043l-1.573,3.6H732.38l7.409-16.067h3.939l2.834,16.073H743Zm-3.6-13.347-.823-.751c1.033-1.687,2.017-2.131,2.84-2.131,1.147,0,2.155,1.027,2.954,1.027.42,0,.895-.162,1.645-.961l.654.919c-.895,1.405-1.711,1.873-2.558,1.873s-2.017-.961-2.906-.961c-.48-.018-.883.138-1.8.985Zm2.252,4.923L738.42,780.4h3.729l-.991-5.722Z" transform="translate(-682.228 -489.928)" fill="#fff"/>
  <path id="Caminho_705" data-name="Caminho 705" d="M762.228,781.054c.636-4.5,2.63-8.093,8.232-8.093s6.6,3.6,5.956,8.093-2.648,8.322-8.256,8.322S761.6,785.593,762.228,781.054Zm3.4,0c-.45,3.164-.24,5.626,2.906,5.626s4.035-2.462,4.479-5.626.21-5.4-2.93-5.4-3.987,2.234-4.461,5.4Z" transform="translate(-694.122 -492.362)" fill="#fff"/>
  <path id="Caminho_706" data-name="Caminho 706" d="M806.671,783.671,805.9,789.3H802.66l2.228-15.947h6.8c3.35,0,5,2.065,4.551,5.157a5.725,5.725,0,0,1-6,5.164Zm.42-2.864H810.3a2.4,2.4,0,0,0,2.63-2.3,1.765,1.765,0,0,0-1.969-2.276h-3.236Z" transform="translate(-710.358 -492.517)" fill="#fff"/>
  <path id="Caminho_707" data-name="Caminho 707" d="M842.645,776.232h-7.577l-.492,3.4H841.1l-.42,2.858H834.2l-.54,3.945h7.667l-.4,2.858H830l2.234-15.947h10.807Z" transform="translate(-721.291 -492.517)" fill="#fff"/>
  <path id="Caminho_708" data-name="Caminho 708" d="M855.56,788.527l.912-2.7a22.7,22.7,0,0,0,5.4.7c1.645,0,2.72-.751,2.864-1.8.21-1.477-1.573-1.8-3.38-2.3-2.624-.775-4.407-2.3-4.035-5,.486-3.236,3.3-4.437,6.442-4.437a17.375,17.375,0,0,1,5.512.889l-1.1,2.7a18.52,18.52,0,0,0-4.8-.708c-1.639,0-2.486.708-2.624,1.669-.186,1.309,1.429,1.735,3.326,2.2,2.654.6,4.527,1.945,4.131,4.737-.492,3.4-3.332,4.923-6.731,4.923A20.312,20.312,0,0,1,855.56,788.527Z" transform="translate(-731.512 -492.378)" fill="#fff"/>
  <path id="Caminho_709" data-name="Caminho 709" d="M890.319,785.6h-5.043l-1.567,3.6H880.28L887.7,773.14h3.939l2.888,16.073h-3.6Zm-1.333-8.406-2.654,5.722h3.729l-1.033-5.722Z" transform="translate(-741.398 -492.433)" fill="#fff"/>
  <path id="Caminho_710" data-name="Caminho 710" d="M910.25,789.3,912.5,773.35h5.956c5.488,0,6.6,3.356,5.956,7.859s-2.7,8.087-8.183,8.087Zm6.352-2.858c3,0,3.945-2.065,4.389-5.23s.072-4.977-2.954-4.977h-2.72l-1.435,10.207Z" transform="translate(-753.382 -492.517)" fill="#fff"/>
  <path id="Caminho_711" data-name="Caminho 711" d="M946.423,785.6h-5.037l-1.573,3.6H936.39L943.8,773.14h3.939l2.828,16.073H947ZM945.09,777.2l-2.654,5.722h3.729l-1-5.74Z" transform="translate(-763.836 -492.433)" fill="#fff"/>
  <path id="Caminho_712" data-name="Caminho 712" d="M966.68,800.708l1.033-3.05H966.47l.468-3.4h3.044l-.468,3.4-1.9,3.05Z" transform="translate(-775.862 -500.873)" fill="#fff"/>
  <path id="Caminho_713" data-name="Caminho 713" d="M1000.691,781.065a3.2,3.2,0,0,1,2.342,3.873c-.4,2.72-2.366,4.359-5.7,4.359h-7.2l2.227-15.947h6.755c3.332,0,4.905,1.5,4.527,4.083a4.359,4.359,0,0,1-2.93,3.6Zm-6.436,1.5-.516,3.873h3.452c1.357,0,2.3-.45,2.51-1.951s-.636-1.921-2.089-1.921Zm4.083-6.334h-3.164l-.492,3.452h3.176c1.363,0,2.114-.492,2.3-1.735s-.45-1.717-1.813-1.717Z" transform="translate(-785.326 -492.517)" fill="#fff"/>
  <path id="Caminho_714" data-name="Caminho 714" d="M1026.726,789.3l-2.552-5.674h-2.323l-.775,5.674h-3.236l2.228-15.947h6.8c3.35,0,5,2.017,4.569,5.133a5.271,5.271,0,0,1-3.818,4.6l2.858,6.214Zm-4.455-8.562h3.164a2.468,2.468,0,0,0,2.7-2.252c.258-1.651-.661-2.252-1.993-2.252h-3.236Z" transform="translate(-796.407 -492.517)" fill="#fff"/>
  <path id="Caminho_715" data-name="Caminho 715" d="M1054.639,785.6H1049.6l-1.573,3.6H1044.6l7.409-16.067h3.939l2.84,16.067h-3.566ZM1053.3,777.2l-2.648,5.722h3.728l-1.033-5.722Z" transform="translate(-807.108 -492.433)" fill="#fff"/>
  <path id="Caminho_716" data-name="Caminho 716" d="M1082.678,773a17.642,17.642,0,0,1,5.632.889l-1.1,2.7a17.656,17.656,0,0,0-4.665-.708c-2.954,0-4.2,2.041-4.689,5.212-.468,3.4.258,5.464,3.212,5.464a20.2,20.2,0,0,0,4.851-.7l.33,2.7a20.072,20.072,0,0,1-5.512.865l-.138,1.009c.775.1,1.9.426,1.711,1.711-.162,1.129-1.129,1.855-2.654,1.855a6.821,6.821,0,0,1-1.873-.282l.33-.961a5.283,5.283,0,0,0,1.1.138,1.117,1.117,0,0,0,1.243-.913c.072-.468-.282-.865-1.051-.961l.234-1.621c-4.953-.3-5.794-3.939-5.187-8.3C1075.083,776.566,1077.076,773,1082.678,773Z" transform="translate(-818.975 -492.377)" fill="#fff"/>
  <path id="Caminho_717" data-name="Caminho 717" d="M1100.938,781.054c.636-4.5,2.63-8.093,8.231-8.093s6.6,3.6,5.956,8.093-2.648,8.322-8.256,8.322S1100.307,785.593,1100.938,781.054Zm3.4,0c-.45,3.164-.24,5.626,2.906,5.626s4.035-2.462,4.479-5.626.21-5.4-2.93-5.4S1104.81,777.883,1104.342,781.054Z" transform="translate(-829.57 -492.362)" fill="#fff"/>
  <path id="Caminho_718" data-name="Caminho 718" d="M1153.745,776.232h-7.337l-.565,3.873h6.286l-.4,2.864h-6.262l-.889,6.328h-3.236l2.227-15.947h10.555Z" transform="translate(-845.794 -492.517)" fill="#fff"/>
  <path id="Caminho_719" data-name="Caminho 719" d="M1166.456,781.054c.6-4.5,2.624-8.093,8.232-8.093s6.6,3.6,5.956,8.093-2.654,8.322-8.255,8.322S1165.82,785.593,1166.456,781.054Zm3.4,0c-.444,3.164-.234,5.626,2.906,5.626s4.035-2.462,4.479-5.626.216-5.4-2.93-5.4S1170.317,777.883,1169.855,781.054Z" transform="translate(-855.794 -492.362)" fill="#fff"/>
  <path id="Caminho_720" data-name="Caminho 720" d="M1204.366,789.3l-2.558-5.674h-2.324l-.769,5.674h-3.236l2.228-15.947h6.8c3.356,0,5,2.017,4.575,5.133a5.284,5.284,0,0,1-3.825,4.6l2.864,6.214Zm-4.455-8.562h3.164a2.462,2.462,0,0,0,2.7-2.252c.258-1.651-.655-2.252-1.993-2.252h-3.236Z" transform="translate(-867.46 -492.517)" fill="#fff"/>
  <path id="Caminho_721" data-name="Caminho 721" d="M1232.249,776.232l-1.8,13.065h-3.236l1.8-13.065h-4.2l.378-2.882H1236.8l-.379,2.882Z" transform="translate(-879.18 -492.517)" fill="#fff"/>
  <path id="Caminho_722" data-name="Caminho 722" d="M1260.975,776.232H1253.4l-.492,3.4h6.52l-.42,2.858h-6.5l-.54,3.945h7.667l-.4,2.858H1248.33l2.228-15.947h10.807Z" transform="translate(-888.579 -492.517)" fill="#fff"/>
</svg>
