<svg xmlns="http://www.w3.org/2000/svg" viewBox="0 0 914.02 260.25"><defs><style>.cls-1{fill:#fd5000;}.cls-2{fill:#100c08;}.cls-3{fill:#fff;}</style></defs><g id="Layer_2" data-name="Layer 2"><g id="Camada_1" data-name="Camada 1"><path class="cls-1" d="M681.34,53H641.49c-16.8,0-26.19,8.16-28.7,24.93l-7.78,52c-1.3,8.73,0,15.17,3.85,19.7s10,6.66,18.64,6.66h39.85c16.8,0,26.19-8.15,28.7-24.93l7.77-52c1.31-8.73,0-15.18-3.84-19.7S690,53,681.34,53M670.86,129.9a5.06,5.06,0,0,1-.58,2,2.18,2.18,0,0,1-.76.09H630.13c0-.19,0-.41.08-.67l7.77-52a5.06,5.06,0,0,1,.58-2,2.06,2.06,0,0,1,.76-.1h39.39a6.66,6.66,0,0,1-.08.67Z"/><path class="cls-1" d="M787.08,53H747.23c-16.81,0-26.2,8.16-28.7,24.93l-7.78,52c-1.31,8.73,0,15.17,3.85,19.7s10,6.66,18.63,6.66h39.85c16.81,0,26.2-8.15,28.71-24.93l7.77-52c1.31-8.73.05-15.18-3.85-19.7S795.75,53,787.08,53M776.59,129.9a4.64,4.64,0,0,1-.58,2,2.05,2.05,0,0,1-.75.09h-39.4c0-.19,0-.41.08-.67l7.78-52a4.84,4.84,0,0,1,.58-2,1.93,1.93,0,0,1,.75-.1h39.4c0,.19,0,.41-.08.67Z"/><path class="cls-1" d="M589.57,131.71h-55A6.47,6.47,0,0,1,528,124l5.83-39.69a9.19,9.19,0,0,1,8.8-7.67h55l3.58-24.39H538.88c-14.24,0-27.47,11.54-29.56,25.78l-7.67,52.25c-2.09,14.23,7.76,25.78,22,25.78H586Z"/><path class="cls-2" d="M313.38,59.88a30.25,30.25,0,0,0-10.21,18.26c-3,20.51,3.16,26.52,22,33.16l29.75,10.43c2,.86,3.15,2.1,3.34,3.66a5.19,5.19,0,0,1-1.25,3.8,7.69,7.69,0,0,1-5.51,2.52H295.31l-3.58,24.39h62.36a29.6,29.6,0,0,0,19.36-7.59,30.26,30.26,0,0,0,10.2-18.27c3-20.5-3.15-26.51-22-33.16L331.93,86.66c-3-1.33-3.67-3.93-3-5.91s2.62-3.9,6.46-4.07h56.16l3.57-24.39H332.73a29.51,29.51,0,0,0-19.35,7.59"/><polygon class="cls-2" points="430.77 94.43 421.72 156.09 447.15 156.09 456.2 94.43 430.77 94.43"/><polygon class="cls-2" points="406.44 52.29 402.72 76.68 433.38 76.68 458.81 76.68 489.12 76.68 490.16 76.68 493.74 52.29 406.44 52.29"/><path class="cls-1" d="M909.68,59.64C905.81,55.16,899.72,53,891,53H829.67l-3.54,23.71H888.5c0,.19,0,.41-.08.67L886,92.42a5.18,5.18,0,0,1-.58,2,2.5,2.5,0,0,1-.76.09h-36l0-.1H823.48l-9.25,61.83h25.41l5.48-37.47h37.41c16.81,0,26.19-8.16,28.7-24.93l2.3-14.52C914.83,70.61,913.57,64.16,909.68,59.64Z"/><path class="cls-1" d="M239.73,64.21l-.27-13.78L166.77,0h-94L.25,51,.05,64.75C-.7,113.5,7.63,154.35,24.8,186.17c19.05,35.29,48.46,59.36,87.41,71.54l8.12,2.54,8.11-2.58c38.9-12.35,68.2-36.56,87.09-71.93C232.55,153.84,240.7,113,239.73,64.21Z"/><path class="cls-2" d="M199.21,176.44c-15.89,29.77-40.55,50.14-73.31,60.54l-5.63,1.79L114.62,237C81.82,226.75,57.06,206.49,41,176.8,26.43,149.73,19.35,114.83,20,73.06l.15-9.56L80.22,21.22h79.13L219.61,63l.19,9.58c.83,41.76-6.1,76.7-20.59,103.83"/><path class="cls-3" d="M225.45,65.73l-.15-7.4-6.08-4.22-53.37-37-3.73-2.58H77.44l-3.75,2.64L20.48,54.58l-6,4.25-.11,7.38c-.7,45.73,7,83.82,22.84,113.2,17.14,31.76,43.64,53.44,78.77,64.42l4.35,1.36,4.36-1.38c35.07-11.14,61.47-32.93,78.47-64.77C218.84,149.58,226.36,111.46,225.45,65.73ZM163,206.63l-16.09-17H92.68L76.85,206.35C47,180.67,31.7,140.1,29.16,87.88l0-.71c-.07-1.59-.14-3.19-.19-4.8v0c-.05-1.62-.08-3.24-.11-4.88,0-.36,0-.72,0-1.08,0-1.26,0-2.52,0-3.79V71.27c0-1.6,0-3.21,0-4.84L82,29h75.55L211,66v0C212.2,129,197.07,177.44,163,206.63Z"/><path class="cls-3" d="M69.91,156v12.41c0,1.74,2.33,3.31,5.87,3.94l13.85-.22S69.91,155.14,69.91,156Z"/><path class="cls-3" d="M64.65,82.86l-5.11,1.43a2.25,2.25,0,0,0-1.32,1.95L58,106.16a2.06,2.06,0,0,0,.59,1.58l4.34,3a1.08,1.08,0,0,0,1.8-.76L66,83.83A1,1,0,0,0,64.65,82.86Z"/><path class="cls-3" d="M81.52,152.14l-5.21-28.36c-.36-2.17-6.4-5.65-6.4-5.65v21.63C69.91,144.4,81.52,152.14,81.52,152.14Z"/><path class="cls-3" d="M94.72,158.5l1,3.59a2,2,0,0,0,1.4,1.41l6.46,1.73a1.68,1.68,0,0,0,.5.07h31.63a1.68,1.68,0,0,0,.5-.07l6.46-1.73a2,2,0,0,0,1.4-1.41l1-3.59H94.72Z"/><path class="cls-3" d="M119.91,70.06h46.56s-2.21-16.53-11-16.53H84.37c-8.82,0-11,16.53-11,16.53h46.57Z"/><path class="cls-3" d="M90.6,142.56l1.17,4.18a2.32,2.32,0,0,0,1.63,1.65l7.54,2a2.25,2.25,0,0,0,.58.08h36.77a2.25,2.25,0,0,0,.58-.08l7.54-2a2.32,2.32,0,0,0,1.63-1.65l1.17-4.18H90.6Z"/><path class="cls-3" d="M150.18,172.14l13.86.22c3.53-.63,5.86-2.2,5.86-3.94V156C169.9,155.14,150.18,172.14,150.18,172.14Z"/><path class="cls-3" d="M181.59,86.24a2.25,2.25,0,0,0-1.32-1.95l-5.11-1.43a1,1,0,0,0-1.37,1L175.08,110a1.08,1.08,0,0,0,1.8.76l4.34-3a2.06,2.06,0,0,0,.59-1.58Z"/><path class="cls-3" d="M163.5,123.78l-5.21,28.36s11.61-7.74,11.61-12.38V118.13S163.86,121.61,163.5,123.78Z"/><path class="cls-3" d="M167.14,79.78H72.67l-2.62,24a25,25,0,0,0-.14,2.6v4s14.6,3.65,23.14,3.65h53.71c8.54,0,23.14-3.65,23.14-3.65v-4a25,25,0,0,0-.14-2.6Z"/><path class="cls-3" d="M151.77,130.3l1.33-4.75H86.71L88,130.3a2.67,2.67,0,0,0,1.85,1.86l8.55,2.29a2.5,2.5,0,0,0,.66.09h41.61a2.5,2.5,0,0,0,.66-.09l8.55-2.29A2.65,2.65,0,0,0,151.77,130.3Z"/><path class="cls-2" d="M293.76,234.69l3.71-26.57h5.39l8.28,16.68h.08l2.34-16.68h5.2l-3.71,26.57h-5.36l-8.35-16.1h-.08L299,234.69Z"/><path class="cls-2" d="M338.06,228.67h-8.4l-2.62,6h-5.7l12.34-26.76h6.57L345,234.69H339Zm-2.23-14-4.41,9.53h6.21l-1.72-9.53Z"/><path class="cls-2" d="M365,207.73a29.13,29.13,0,0,1,9.38,1.49l-1.84,4.49a29.27,29.27,0,0,0-7.77-1.17c-4.92,0-7,3.4-7.81,8.67-.78,5.66.43,9.1,5.35,9.1a33.12,33.12,0,0,0,8.08-1.17l.55,4.49a33.08,33.08,0,0,1-9.18,1.45l-.23,1.68c1.29.15,3.16.7,2.85,2.85-.27,1.87-1.88,3.08-4.41,3.08a11.35,11.35,0,0,1-3.13-.46l.55-1.61a8.79,8.79,0,0,0,1.83.24,1.85,1.85,0,0,0,2.07-1.52c.12-.79-.47-1.45-1.75-1.61l.39-2.69c-8.25-.51-9.65-6.56-8.64-13.83C352.36,213.71,355.68,207.73,365,207.73Z"/><path class="cls-2" d="M392.91,228.67h-8.4l-2.62,6h-5.7l12.34-26.76h6.57l4.72,26.76h-5.94Zm-6-22.23-1.37-1.25c1.72-2.81,3.36-3.55,4.73-3.55,1.91,0,3.59,1.72,4.92,1.72.71,0,1.49-.27,2.74-1.6l1.09,1.52c-1.48,2.34-2.85,3.13-4.26,3.13s-3.36-1.61-4.84-1.61C389.12,204.8,388.45,205,386.93,206.44Zm3.75,8.21-4.41,9.53h6.21l-1.72-9.53Z"/><path class="cls-2" d="M406.15,221.21c1.06-7.5,4.38-13.48,13.71-13.48s11,6,9.93,13.48-4.42,13.87-13.75,13.87S405.1,228.79,406.15,221.21Zm5.67,0c-.74,5.27-.39,9.38,4.84,9.38s6.72-4.11,7.46-9.38.35-9-4.88-9S412.6,215.94,411.82,221.21Z"/><path class="cls-2" d="M453.15,225.31l-1.29,9.38h-5.39l3.71-26.57h11.33c5.59,0,8.32,3.44,7.58,8.6s-4.42,8.59-10,8.59Zm.7-4.76h5.35a4,4,0,0,0,4.38-3.83c.39-2.7-1.06-3.79-3.28-3.79h-5.39Z"/><path class="cls-2" d="M494.87,212.93H482.25l-.82,5.66h10.86l-.7,4.77H480.77l-.9,6.56h12.77l-.66,4.77H473.82l3.71-26.57h18Z"/><path class="cls-2" d="M499.37,233.63l1.52-4.49a37.29,37.29,0,0,0,9,1.17c2.74,0,4.53-1.25,4.77-3,.35-2.46-2.62-3-5.63-3.82-4.37-1.29-7.34-3.83-6.71-8.32.78-5.36,5.43-7.43,10.7-7.43a28.65,28.65,0,0,1,9.18,1.49l-1.84,4.49a30.72,30.72,0,0,0-8-1.17c-2.73,0-4.14,1.17-4.37,2.77-.31,2.19,2.38,2.89,5.55,3.67,4.41,1.06,7.54,3.25,6.87,7.89-.82,5.67-5.55,8.21-11.21,8.21A33.52,33.52,0,0,1,499.37,233.63Z"/><path class="cls-2" d="M540.85,228.67h-8.39l-2.62,6h-5.7l12.34-26.76H543l4.73,26.76h-5.94Zm-2.22-14-4.42,9.53h6.21l-1.71-9.53Z"/><path class="cls-2" d="M554.06,234.69l3.71-26.57h9.92c9.14,0,11,5.59,9.92,13.09s-4.49,13.48-13.63,13.48Zm10.59-4.77c5,0,6.56-3.44,7.3-8.71s.12-8.28-4.92-8.28H562.5l-2.39,17Z"/><path class="cls-2" d="M596.92,228.67h-8.4l-2.62,6h-5.7l12.34-26.76h6.56l4.73,26.76h-5.94Zm-2.23-14-4.42,9.53h6.22l-1.72-9.53Z"/><path class="cls-2" d="M610.63,239.76l1.72-5.07h-2.07l.78-5.67h5.08l-.78,5.67-3.17,5.07Z"/><path class="cls-2" d="M651.53,221c2.77.86,4.41,3,3.91,6.44-.67,4.53-4,7.27-9.5,7.27h-12l3.71-26.57h11.25c5.55,0,8.17,2.5,7.54,6.8a7.26,7.26,0,0,1-4.88,6Zm-10.7,2.5-.86,6.44h5.74c2.27,0,3.83-.74,4.18-3.24s-1.06-3.2-3.48-3.2Zm6.79-10.55h-5.27l-.82,5.74h5.27c2.27,0,3.52-.82,3.83-2.89S649.89,212.93,647.62,212.93Z"/><path class="cls-2" d="M676.45,234.69l-4.25-9.46h-3.87L667,234.69h-5.39l3.71-26.57h11.33c5.58,0,8.32,3.36,7.62,8.56a8.82,8.82,0,0,1-6.37,7.66l4.76,10.35ZM669,220.43h5.28c2.22,0,4.06-1,4.49-3.75s-1.1-3.75-3.32-3.75h-5.39Z"/><path class="cls-2" d="M705.13,228.67h-8.4l-2.62,6h-5.7l12.34-26.76h6.57L712,234.69h-5.93Zm-2.23-14-4.41,9.53h6.21L703,214.65Z"/><path class="cls-2" d="M732.09,207.73a29.11,29.11,0,0,1,9.37,1.49l-1.83,4.49a29.38,29.38,0,0,0-7.78-1.17c-4.92,0-7,3.4-7.81,8.67-.78,5.66.43,9.1,5.35,9.1a33.25,33.25,0,0,0,8.09-1.17l.54,4.49a33.08,33.08,0,0,1-9.18,1.45l-.23,1.68c1.29.15,3.16.7,2.85,2.85-.27,1.87-1.87,3.08-4.41,3.08a11.35,11.35,0,0,1-3.13-.46l.55-1.61a8.89,8.89,0,0,0,1.84.24,1.87,1.87,0,0,0,2.07-1.52c.11-.79-.47-1.45-1.76-1.61L727,235c-8.24-.51-9.65-6.56-8.63-13.83C719.43,213.71,722.75,207.73,732.09,207.73Z"/><path class="cls-2" d="M744.86,221.21c1.06-7.5,4.38-13.48,13.71-13.48s11,6,9.93,13.48-4.42,13.87-13.75,13.87S743.81,228.79,744.86,221.21Zm5.67,0c-.75,5.27-.39,9.38,4.84,9.38s6.72-4.11,7.46-9.38.35-9-4.88-9S751.31,215.94,750.53,221.21Z"/><path class="cls-2" d="M805.84,212.93H793.62l-.94,6.44h10.47l-.67,4.77H792.05l-1.48,10.55h-5.39l3.71-26.57h17.58Z"/><path class="cls-2" d="M810.38,221.21c1-7.5,4.37-13.48,13.71-13.48s11,6,9.92,13.48-4.41,13.87-13.75,13.87S809.32,228.79,810.38,221.21Zm5.66,0c-.74,5.27-.39,9.38,4.85,9.38s6.71-4.11,7.46-9.38.35-9-4.89-9S816.82,215.94,816,221.21Z"/><path class="cls-2" d="M854.09,234.69l-4.26-9.46H846l-1.29,9.46h-5.39L843,208.12h11.33c5.58,0,8.32,3.36,7.61,8.56a8.8,8.8,0,0,1-6.36,7.66l4.76,10.35Zm-7.42-14.26h5.27c2.23,0,4.07-1,4.5-3.75s-1.1-3.75-3.33-3.75h-5.39Z"/><path class="cls-2" d="M881,212.93l-3,21.76h-5.39l3-21.76h-7l.62-4.81h19.34l-.63,4.81Z"/><path class="cls-2" d="M913.2,212.93H900.58l-.82,5.66h10.86l-.7,4.77H899.1l-.9,6.56H911l-.66,4.77H892.14l3.72-26.57h18Z"/></g></g></svg>