<svg xmlns="http://www.w3.org/2000/svg" width="118.663" height="82" viewBox="0 0 118.663 82">
  <g id="Icon_2" data-name="Icon 2" transform="translate(-68.53 -2.109)">
    <path id="Caminho_232" data-name="Caminho 232" d="M125.939,16.949l1.334-3.78a50.7,50.7,0,0,0-31.353,0l1.359,3.78a47.585,47.585,0,0,1,28.66,0Z" transform="translate(40.78 12.735)" fill="#fd5000"/>
    <path id="Caminho_233" data-name="Caminho 233" d="M125.939,21.842l1.334-3.8a51.093,51.093,0,0,0-31.353,0l1.359,3.78a47.486,47.486,0,0,1,28.66.025Z" transform="translate(40.78 19.995)" fill="#fd5000"/>
    <path id="Caminho_234" data-name="Caminho 234" d="M127.273,22.926a50.8,50.8,0,0,0-31.353,0l1.359,3.83a47.585,47.585,0,0,1,28.66,0Z" transform="translate(40.78 27.234)" fill="#fd5000"/>
    <path id="Caminho_235" data-name="Caminho 235" d="M106.239,16.948l1.334-3.78a50.723,50.723,0,0,0-31.353,0l1.384,3.78a47.486,47.486,0,0,1,28.635,0Z" transform="translate(11.45 12.736)" fill="#fd5000"/>
    <path id="Caminho_236" data-name="Caminho 236" d="M178.822,6.582l-1.366-.472a73.627,73.627,0,0,0-24.368-4,84.458,84.458,0,0,0-25.213,3.776,73.279,73.279,0,0,0-23.723-3.776,83.191,83.191,0,0,0-25.884,4l-1.341.5v4.074h-8.4V84.109H187.193V10.681h-8.371ZM129.886,9.489a83.663,83.663,0,0,1,23.2-3.329,70.05,70.05,0,0,1,21.686,3.3V70.546a74.521,74.521,0,0,0-21.686-3.105,87.463,87.463,0,0,0-23.2,3.155Zm-48.911,0A82.3,82.3,0,0,1,104.151,6.16a69.926,69.926,0,0,1,21.686,3.329V70.571a74.3,74.3,0,0,0-21.686-3.13A87.066,87.066,0,0,0,80.975,70.6V48.24l2.012,5.241L92.65,64.287V53.034a46.725,46.725,0,0,1,25.213.994L119.2,50.2a50.327,50.327,0,0,0-26.927-1.168L89.57,41.582a47.52,47.52,0,0,1,28.318.174l1.341-3.825A51.32,51.32,0,0,0,88.1,37.807L80.975,19.5V9.563Zm-3.453,12.42,3.453,8.943L88.427,50l.224.571V53.68l-2.062-2.31L81.074,37.012,77.025,26.479,75.56,22.7l1.466-.571Zm-4.968-7.1H76.9v2.931L72.554,19.4Zm110.565,0v65.33H72.579V26.43l4.347,11.253V76.21l2.708-.969a80.657,80.657,0,0,1,24.518-3.85A69.553,69.553,0,0,1,127.2,75.142l.671.248.671-.248a80.93,80.93,0,0,1,24.542-3.751,69.4,69.4,0,0,1,23.027,3.751l2.708.944V14.73Z" transform="translate(0 0)" fill="#fd5000"/>
  </g>
</svg>
