<svg xmlns="http://www.w3.org/2000/svg" width="24" height="24" viewBox="0 0 24 24">
  <g id="bx-happy" transform="translate(-2 -2)">
    <path id="Caminho_727" data-name="Caminho 727" d="M14,2A12,12,0,1,0,26,14,12.014,12.014,0,0,0,14,2Zm0,21.6A9.6,9.6,0,1,1,23.6,14,9.611,9.611,0,0,1,14,23.6Z" fill="#fff"/>
    <circle id="Elipse_23" data-name="Elipse 23" cx="1.5" cy="1.5" r="1.5" transform="translate(8 11)" fill="#fff"/>
    <circle id="Elipse_24" data-name="Elipse 24" cx="1.493" cy="1.493" r="1.493" transform="translate(16.821 10.646)" fill="#fff"/>
    <path id="Caminho_728" data-name="Caminho 728" d="M12,18c4,0,5-4,5-4H7S8,18,12,18Z" transform="translate(2 3)" fill="#fff"/>
  </g>
</svg>
