<svg xmlns="http://www.w3.org/2000/svg" width="19.004" height="19.005" viewBox="0 0 19.004 19.005">
  <path id="bxs-phone" d="M21.655,18.072l-4.336-3.943a1.068,1.068,0,0,0-1.484.046L13.282,16.8A6.124,6.124,0,0,1,10.16,15.03a6.094,6.094,0,0,1-1.771-3.121l2.623-2.554a1.067,1.067,0,0,0,.046-1.484L7.117,3.535a1.066,1.066,0,0,0-1.484-.093L3.318,5.427a1.067,1.067,0,0,0-.309.692A16.111,16.111,0,0,0,7.586,17.6a16.154,16.154,0,0,0,11.1,4.585c.215,0,.348-.006.383-.009a1.058,1.058,0,0,0,.691-.31l1.984-2.316A1.064,1.064,0,0,0,21.655,18.072Z" transform="translate(-3 -3.185)" fill="#fff"/>
</svg>
