<svg xmlns="http://www.w3.org/2000/svg" width="24" height="22.667" viewBox="0 0 24 22.667">
  <g id="bx-user-pin" transform="translate(-3 -2)">
    <path id="Caminho_725" data-name="Caminho 725" d="M13.361,11.309a2.591,2.591,0,0,0,2.68-2.655A2.591,2.591,0,0,0,13.361,6a2.592,2.592,0,0,0-2.68,2.655A2.592,2.592,0,0,0,13.361,11.309Zm0,1.327A5.1,5.1,0,0,0,8,17.414v.512H18.721v-.512A5.1,5.1,0,0,0,13.361,12.636Z" transform="translate(1.639 1.361)" fill="#2d2d2d"/>
    <path id="Caminho_726" data-name="Caminho 726" d="M3,2V24.667H27V2ZM5.667,22V4.667H24.333l0,17.333Z" transform="translate(0)" fill="#2d2d2d"/>
  </g>
</svg>
