<svg xmlns="http://www.w3.org/2000/svg" width="19.2" height="24" viewBox="0 0 19.2 24">
  <g id="bx-map" transform="translate(-4 -2)">
    <path id="Caminho_729" data-name="Caminho 729" d="M12.746,15.492A4.746,4.746,0,1,0,8,10.746,4.751,4.751,0,0,0,12.746,15.492Zm0-7.119a2.373,2.373,0,1,1-2.373,2.373A2.375,2.375,0,0,1,12.746,8.373Z" transform="translate(0.854 0.836)" fill="#fff"/>
    <path id="Caminho_730" data-name="Caminho 730" d="M12.9,25.777a1.2,1.2,0,0,0,1.392,0c.365-.258,8.939-6.449,8.9-14.177A9.6,9.6,0,0,0,4,11.594C3.965,19.328,12.539,25.519,12.9,25.777ZM13.6,4.4a7.209,7.209,0,0,1,7.2,7.206c.025,5.326-5.266,10.108-7.2,11.676-1.933-1.57-7.225-6.353-7.2-11.682A7.207,7.207,0,0,1,13.6,4.4Z" transform="translate(0)" fill="#fff"/>
  </g>
</svg>
