<svg xmlns="http://www.w3.org/2000/svg" viewBox="0 0 239.19 259.57"><defs><style>.cls-1{fill:#fd5000;}.cls-2{fill:#100c08;}.cls-3{fill:#fff;}</style></defs><g id="Layer_2" data-name="Layer 2"><g id="Camada_1" data-name="Camada 1"><path class="cls-1" d="M239.11,64l-.27-13.74L166.34,0H72.55L.25,50.87.05,64.58C-.7,113.2,7.61,154,24.74,185.68c19,35.2,48.33,59.21,87.18,71.36l8.1,2.53L128.1,257c38.8-12.32,68-36.46,86.87-71.75C232,153.44,240.07,112.66,239.11,64Z"/><path class="cls-2" d="M198.69,176c-15.84,29.69-40.45,50-73.12,60.38L120,238.15l-5.63-1.76c-32.71-10.23-57.41-30.43-73.39-60-14.57-27-21.63-61.81-21-103.47l.15-9.53L80,21.17h78.93L219,62.87l.19,9.55c.82,41.65-6.09,76.5-20.54,103.56"/><path class="cls-3" d="M224.86,65.56l-.14-7.38L218.65,54,165.41,17l-3.71-2.58H77.24L73.5,17.09,20.43,54.43l-6,4.24L14.29,66c-.69,45.61,7,83.6,22.79,112.9,17.09,31.68,43.52,53.3,78.55,64.25l4.35,1.37,4.35-1.39c35-11.11,61.31-32.84,78.26-64.6C218.27,149.19,225.77,111.17,224.86,65.56ZM162.61,206.09l-16.05-17H92.44L76.65,205.81c-29.75-25.61-45-66.08-47.56-118.15,0-.24,0-.48,0-.72-.07-1.58-.13-3.18-.18-4.79v0q-.07-2.41-.12-4.86c0-.36,0-.72,0-1.08,0-1.26,0-2.52,0-3.78V71.09c0-1.6,0-3.21,0-4.83L81.82,28.92h75.35l53.24,36.93v0C211.64,128.64,196.56,177,162.61,206.09Z"/><path class="cls-3" d="M69.73,155.6V168c0,1.74,2.32,3.3,5.85,3.93l13.81-.21S69.73,154.74,69.73,155.6Z"/><path class="cls-3" d="M64.48,82.64l-5.1,1.43A2.24,2.24,0,0,0,58.07,86l-.22,19.87a2,2,0,0,0,.59,1.58l4.33,3a1.08,1.08,0,0,0,1.79-.76l1.29-26.12A1,1,0,0,0,64.48,82.64Z"/><path class="cls-3" d="M81.31,151.75l-5.2-28.3c-.36-2.16-6.38-5.62-6.38-5.62v21.56C69.73,144,81.31,151.75,81.31,151.75Z"/><path class="cls-3" d="M94.48,158.09l1,3.58a2,2,0,0,0,1.4,1.4l6.44,1.73a1.68,1.68,0,0,0,.5.07h31.55a1.73,1.73,0,0,0,.5-.07l6.44-1.73a2,2,0,0,0,1.4-1.4l1-3.58H94.48Z"/><path class="cls-3" d="M119.59,69.88H166s-2.19-16.49-11-16.49H84.15c-8.8,0-11,16.49-11,16.49h46.44Z"/><path class="cls-3" d="M90.36,142.18l1.17,4.18A2.31,2.31,0,0,0,93.16,148l7.52,2a2.22,2.22,0,0,0,.57.07h36.68a2.25,2.25,0,0,0,.58-.07l7.52-2a2.34,2.34,0,0,0,1.63-1.64l1.17-4.18H90.36Z"/><path class="cls-3" d="M149.79,171.7l13.82.21c3.52-.63,5.85-2.19,5.85-3.93V155.6C169.46,154.74,149.79,171.7,149.79,171.7Z"/><path class="cls-3" d="M181.12,86a2.24,2.24,0,0,0-1.31-1.94l-5.11-1.43a1,1,0,0,0-1.36,1l1.29,26.12a1.08,1.08,0,0,0,1.79.76l4.33-3a2.08,2.08,0,0,0,.59-1.58Z"/><path class="cls-3" d="M163.07,123.45l-5.19,28.3s11.58-7.72,11.58-12.36V117.83S163.43,121.29,163.07,123.45Z"/><path class="cls-3" d="M166.71,79.57H72.48l-2.61,24a25,25,0,0,0-.14,2.6v4s14.56,3.63,23.08,3.63h53.57c8.52,0,23.08-3.63,23.08-3.63v-4a22.53,22.53,0,0,0-.15-2.6Z"/><path class="cls-3" d="M151.38,130l1.32-4.74H86.48L87.81,130a2.67,2.67,0,0,0,1.85,1.86l8.53,2.28a2.37,2.37,0,0,0,.65.09h41.5a2.39,2.39,0,0,0,.66-.09l8.53-2.28A2.67,2.67,0,0,0,151.38,130Z"/></g></g></svg>