<svg xmlns="http://www.w3.org/2000/svg" width="38.172" height="26.836" viewBox="0 0 38.172 26.836">
  <path id="youtube" d="M38.421,8.7a4.8,4.8,0,0,0-3.374-3.4c-2.977-.8-14.912-.8-14.912-.8S8.2,4.5,5.222,5.3A4.8,4.8,0,0,0,1.848,8.7c-.8,3-.8,9.247-.8,9.247s0,6.251.8,9.247a4.724,4.724,0,0,0,3.374,3.342c2.977.8,14.912.8,14.912.8s11.935,0,14.912-.8a4.724,4.724,0,0,0,3.374-3.342c.8-3,.8-9.247.8-9.247s0-6.251-.8-9.247ZM16.23,23.621V12.27l9.976,5.675Z" transform="translate(-1.048 -4.5)" fill="gray"/>
</svg>
