<svg xmlns="http://www.w3.org/2000/svg" width="14" height="11.377" viewBox="0 0 14 11.377">
  <path id="twitter" d="M16,5.783a5.733,5.733,0,0,1-1.65.452,2.877,2.877,0,0,0,1.263-1.589,5.759,5.759,0,0,1-1.824.7A2.873,2.873,0,0,0,8.819,7.308a2.9,2.9,0,0,0,.074.654,8.154,8.154,0,0,1-5.92-3A2.877,2.877,0,0,0,3.863,8.8a2.866,2.866,0,0,1-1.3-.359v.036a2.873,2.873,0,0,0,2.3,2.816,2.873,2.873,0,0,1-.757.1,2.925,2.925,0,0,1-.54-.051,2.876,2.876,0,0,0,2.683,1.995A5.8,5.8,0,0,1,2,14.523,8.168,8.168,0,0,0,14.573,7.641q0-.187-.008-.372A5.845,5.845,0,0,0,16,5.783Z" transform="translate(-1.999 -4.436)" fill="#fff"/>
</svg>
