<svg xmlns="http://www.w3.org/2000/svg" width="51.603" height="64" viewBox="0 0 51.603 64">
  <g id="Compromisso" transform="translate(0 0)">
    <path id="Caminho_124" data-name="Caminho 124" d="M287.606,90.192H249.138a6.357,6.357,0,0,0-6.568,6.089v51.814a6.338,6.338,0,0,0,6.568,6.089h38.468a6.357,6.357,0,0,0,6.568-6.089V96.281a6.472,6.472,0,0,0-6.568-6.089Zm-.287,61.1H249.5a3.83,3.83,0,0,1-3.944-3.581V96.683a3.83,3.83,0,0,1,3.944-3.657h37.932a3.83,3.83,0,0,1,3.944,3.638v51.048a4.232,4.232,0,0,1-4.059,3.581Z" transform="translate(-242.57 -90.188)" fill="#fd5000"/>
    <path id="Caminho_125" data-name="Caminho 125" d="M253.147,110.769l6.662-6.642,3.369,3.35a1.232,1.232,0,0,0,1.791,0L272,100.45l1.271,1.271a.6.6,0,0,0,1.04-.366l.674-4.948a.6.6,0,0,0-.674-.674l-4.929.674a.616.616,0,0,0-.366,1.059l1.271,1.271-6.142,6.122-3.446-3.427a1.194,1.194,0,0,0-1.791,0l-7.47,7.547a1.239,1.239,0,1,0,1.714,1.791Z" transform="translate(-234.888 -85.139)" fill="#fd5000"/>
    <path id="Caminho_126" data-name="Caminho 126" d="M277.654,111.31H249.209a1.271,1.271,0,0,0,0,2.541h28.369a1.3,1.3,0,0,0,1.259-1.271,1.162,1.162,0,0,0-.3-.907A1.14,1.14,0,0,0,277.654,111.31Z" transform="translate(-237.592 -70.876)" fill="#fd5000"/>
    <path id="Caminho_127" data-name="Caminho 127" d="M277.654,117.33H249.209a1.271,1.271,0,0,0,0,2.541h28.369a1.322,1.322,0,0,0,1.278-1.271,1.181,1.181,0,0,0-.318-.908A1.158,1.158,0,0,0,277.654,117.33Z" transform="translate(-237.592 -65.426)" fill="#fd5000"/>
    <path id="Caminho_128" data-name="Caminho 128" d="M277.663,115.467H250.477V95.424a1.277,1.277,0,0,0-2.537,0v21.409A1.3,1.3,0,0,0,249.2,118.1h28.369a1.3,1.3,0,0,0,1.259-1.271,1.163,1.163,0,0,0-.257-.965,1.14,1.14,0,0,0-.907-.4Z" transform="translate(-237.601 -86.391)" fill="#fd5000"/>
  </g>
</svg>
