<svg xmlns="http://www.w3.org/2000/svg" width="24" height="22.8" viewBox="0 0 24 22.8">
  <path id="bx-store-alt" d="M26,5.6A3.6,3.6,0,0,0,22.4,2H5.6A3.6,3.6,0,0,0,2,5.6V9a5.11,5.11,0,0,0,1.2,3.3V22.4a2.4,2.4,0,0,0,2.4,2.4H22.4a2.4,2.4,0,0,0,2.4-2.4V12.291A5.1,5.1,0,0,0,26,9Zm-2.4,0V9a2.543,2.543,0,0,1-2.269,2.6l-.131,0a2.4,2.4,0,0,1-2.4-2.4V4.4h3.6A1.2,1.2,0,0,1,23.6,5.6Zm-12-1.2h4.8V9.2a2.4,2.4,0,1,1-4.8,0ZM4.4,5.6A1.2,1.2,0,0,1,5.6,4.4H9.2V9.2a2.4,2.4,0,0,1-2.4,2.4l-.131,0A2.541,2.541,0,0,1,4.4,9Zm7.2,16.8V18.8h4.8v3.6Zm7.2,0V18.8a2.4,2.4,0,0,0-2.4-2.4H11.6a2.4,2.4,0,0,0-2.4,2.4v3.6H5.6V13.843a4.643,4.643,0,0,0,.944.15A4.786,4.786,0,0,0,10.4,12.372a4.794,4.794,0,0,0,7.2,0,4.785,4.785,0,0,0,3.856,1.621,4.629,4.629,0,0,0,.944-.15V22.4Z" transform="translate(-2 -2)" fill="#fff"/>
</svg>
