<svg xmlns="http://www.w3.org/2000/svg" width="24" height="18" viewBox="0 0 24 18">
  <g id="bx-user-plus" transform="translate(-2 -4)">
    <path id="Caminho_731" data-name="Caminho 731" d="M6,8.415a2.31,2.31,0,0,0,2.415,2.415,2.31,2.31,0,0,0,2.415-2.415A2.31,2.31,0,0,0,8.415,6,2.31,2.31,0,0,0,6,8.415Z" transform="translate(0.792 0.415)" fill="none"/>
    <path id="Caminho_732" data-name="Caminho 732" d="M22.4,8.8H20v3.6H16.4v2.4H20v3.6h2.4V14.8H26V12.4H22.4Zm-18,0a4.7,4.7,0,0,0,4.8,4.8A4.7,4.7,0,0,0,14,8.8,4.7,4.7,0,0,0,9.2,4,4.7,4.7,0,0,0,4.4,8.8Zm7.2,0a2.3,2.3,0,0,1-2.4,2.4A2.3,2.3,0,0,1,6.8,8.8,2.3,2.3,0,0,1,9.2,6.4,2.3,2.3,0,0,1,11.6,8.8Zm-7.2,12A3.6,3.6,0,0,1,8,17.2h2.4A3.6,3.6,0,0,1,14,20.8V22h2.4V20.8a6.007,6.007,0,0,0-6-6H8a6.007,6.007,0,0,0-6,6V22H4.4Z" transform="translate(0 0)" fill="#fff"/>
  </g>
</svg>
