<svg xmlns="http://www.w3.org/2000/svg" width="27.006" height="27.001" viewBox="0 0 27.006 27.001">
  <path id="instagram" d="M13.5,8.815a6.911,6.911,0,1,0,4.9,2.024,6.922,6.922,0,0,0-4.9-2.024Zm0,11.423a4.5,4.5,0,1,1,4.5-4.5,4.5,4.5,0,0,1-4.5,4.5ZM22.32,8.532a1.609,1.609,0,1,1-.471-1.144,1.615,1.615,0,0,1,.471,1.144ZM26.9,10.171a7.99,7.99,0,0,0-2.181-5.657,8.043,8.043,0,0,0-5.657-2.181c-2.229-.127-8.911-.127-11.14,0A8.031,8.031,0,0,0,2.271,4.508,8.017,8.017,0,0,0,.09,10.165c-.127,2.229-.127,8.911,0,11.14a7.99,7.99,0,0,0,2.181,5.657,8.053,8.053,0,0,0,5.657,2.181c2.229.127,8.911.127,11.14,0a7.99,7.99,0,0,0,5.657-2.181A8.043,8.043,0,0,0,26.906,21.3c.127-2.229.127-8.9,0-11.134ZM24.026,23.7a4.556,4.556,0,0,1-2.567,2.567c-1.777.7-6,.542-7.959.542s-6.187.157-7.959-.542A4.556,4.556,0,0,1,2.975,23.7c-.7-1.777-.542-5.995-.542-7.959s-.157-6.187.542-7.959a4.556,4.556,0,0,1,2.567-2.57c1.777-.7,5.995-.542,7.959-.542s6.187-.157,7.959.542a4.556,4.556,0,0,1,2.567,2.567c.7,1.777.542,6,.542,7.959S24.731,21.925,24.026,23.7Z" transform="translate(0.005 -2.238)" fill="gray"/>
</svg>
