<svg xmlns="http://www.w3.org/2000/svg" width="88.549" height="64" viewBox="0 0 88.549 64">
  <path id="Ética" d="M118.889,91.795a1.4,1.4,0,0,0-1.381,0L93.587,109.166a2.763,2.763,0,0,0-.649,3.809v.167l-3.955,1.967-8.371-3.16a5.462,5.462,0,0,0-5.148.691h0l-17.517-.167A2.742,2.742,0,0,0,57,109.145l-23.8-17.161a1.319,1.319,0,0,0-1.381-.1,1.381,1.381,0,0,0-.816,1.214v34.595A1.423,1.423,0,0,0,31.7,128.9l8.581,4.9a2.888,2.888,0,0,0,1.381.356,2.7,2.7,0,0,0,1.884-.732l4.772,4.437a4.186,4.186,0,0,0,.963,5.441h0a4.186,4.186,0,0,0,2.553.879h.293a4.186,4.186,0,0,0,1.549,2.553h0a4.186,4.186,0,0,0,2.532.879h.314a4.1,4.1,0,0,0,6.551,2.553,4.018,4.018,0,0,0,1.046,1.172,4.106,4.106,0,0,0,5.734-.649l6.027,4.018a4.9,4.9,0,0,0,6.844-1.172,4.96,4.96,0,0,0,.879-3.244h.126a5.232,5.232,0,0,0,5.232-4.918,4.813,4.813,0,0,0,2.093.523,4.9,4.9,0,0,0,3.809-1.842h0a4.793,4.793,0,0,0,.942-2.93,4.186,4.186,0,0,0,1.13.146,5.065,5.065,0,0,0,4.583-7.388l3.349-3.349,1.716,2.491a2.763,2.763,0,0,0,2.281,1.193,2.448,2.448,0,0,0,1.381-.356l8.644-5.044a1.4,1.4,0,0,0,.67-1.193V93.03A1.4,1.4,0,0,0,118.889,91.795Zm-85.1,4.018,16.91,12.18L37.268,128.776l-3.411-1.946Zm5.8,34.281,13.352-20.51,2.47,1.779-13.729,19.9ZM51,141a1.4,1.4,0,0,1-.251-1.946l2.532-3.286a1.423,1.423,0,0,1,1.946-.251,1.4,1.4,0,0,1,.251,1.946l-2.553,3.286a1.381,1.381,0,0,1-1.925.314Zm4.374,3.39a1.381,1.381,0,0,1-.251-1.946l2.532-3.286h0l.858-1.109a1.381,1.381,0,0,1,2.093,1.716l-3.37,4.416a1.36,1.36,0,0,1-1.925.209Zm4.374,3.39a1.4,1.4,0,0,1-.251-1.946h0l3.37-4.416a1.423,1.423,0,0,1,1.946-.251,1.4,1.4,0,0,1,.23,1.946l-1.7,2.2h0l-1.7,2.093a1.4,1.4,0,0,1-1.9.439Zm6.069,1.172a1.36,1.36,0,0,1-.251-1.925l1.7-2.2a1.388,1.388,0,0,1,2.2,1.7l-1.7,2.093a1.4,1.4,0,0,1-1.946.272Zm33.36-12.1a2.3,2.3,0,0,1-2.972,1.3,1.591,1.591,0,0,1-.377-.188l-10.109-6.048h-.984a.711.711,0,0,0-.251.126h-.251l-.188.209-.167.188h0a.754.754,0,0,0,0,.23s0,.167,0,.251a1.466,1.466,0,0,0,0,.293.5.5,0,0,0,0,.251,1.276,1.276,0,0,0,.1.251.774.774,0,0,0,0,.23.984.984,0,0,0,.209.209l.188.167,7.89,4.918a2.093,2.093,0,0,1,.67,2.825l-.1.126h0a2.093,2.093,0,0,1-2.763.523l-3.642-2.156h0l-1.716-1.067-3.16-2.093a1.4,1.4,0,0,0-1.486,2.365l1.465.9h0l3.474,2.239a2.508,2.508,0,1,1-2.763,4.186L78.916,144.6a1.383,1.383,0,0,0-1.653,2.218l2.679,2.093a2.218,2.218,0,0,1,.858,1.381,2.17,2.17,0,0,1-3.37,2.114l-5.86-3.851h0a4.186,4.186,0,0,0-.732-5.818h0a4.186,4.186,0,0,0-2.846-.858,4.186,4.186,0,0,0-4.4-3.39,4.186,4.186,0,0,0-4.814-3.349,2.783,2.783,0,0,0-.712.209,4.186,4.186,0,0,0-7.095-.942h0l-1.109,1.381-4.772-4.458,10.988-15.906,15.445.167H71.4a4.751,4.751,0,0,0-2.093,3.872,4.855,4.855,0,0,0,4.772,4.939,4.667,4.667,0,0,0,2.26-.523l2.993-1.423L98.17,134.217a2.365,2.365,0,0,1,1,2.7Zm.481-5.232L80.192,119.63a1.465,1.465,0,0,0-1.381,0l-3.5,1.758a2.11,2.11,0,0,1-2.177-3.6l4.018-2.867a2.7,2.7,0,0,1,2.574-.335l9,3.37a1.36,1.36,0,0,0,1.109,0l4.855-2.511L103.423,128Zm9.292-.356L95.219,111.3l2.47-1.716,13.332,20.573Zm7.848-4.437-3.39,1.925-13.5-20.761,16.889-12.2Z" transform="translate(-31.01 -91.613)" fill="#fd5000"/>
</svg>
