<svg xmlns="http://www.w3.org/2000/svg" width="109.228" height="82" viewBox="0 0 109.228 82">
  <g id="Sustentabilidade" transform="translate(-272.33 -0.93)">
    <path id="Caminho_116" data-name="Caminho 116" d="M287.931,64.756V55.915a1.555,1.555,0,0,1,.6-1.23l54.507-42.208-2.668-2.692a1.648,1.648,0,0,1,.882-2.808l18.053-3.272a1.439,1.439,0,0,1,1.624,1.926l-5.824,16.034a2.158,2.158,0,0,1-3.643.7l-2.483-2.785L289.508,65.568a.975.975,0,0,1-1.578-.812Zm3.481-7.936v2.831l58.011-44.831,2.785,3.086a.348.348,0,0,0,.6-.139l3.318-9.073a.6.6,0,0,0-.673-.789l-10.326,1.74,3.3,3.179Z" transform="translate(20.531 3.629)" fill="#fd5000"/>
    <path id="Caminho_117" data-name="Caminho 117" d="M313.628,57.47H296.55V33.453l17.078-13.2Zm-13.6-3.481h10.117V27.327l-10.117,7.82Z" transform="translate(31.94 25.46)" fill="#fd5000"/>
    <path id="Caminho_118" data-name="Caminho 118" d="M322.458,66.488H305.38V26.623l17.078-13.2Zm-13.6-3.481h10.117V20.5l-10.117,7.82Z" transform="translate(43.573 16.442)" fill="#fd5000"/>
    <path id="Caminho_119" data-name="Caminho 119" d="M304.962,48.689H288V40.1l17.078-13.2Zm-13.6-3.481h10.117V34.093l-10.117,7.82Z" transform="translate(20.665 34.241)" fill="#fd5000"/>
    <path id="Caminho_120" data-name="Caminho 120" d="M292.7,70.212h-9.282c-3.017,0-5.476-3.109-5.476-6.961V47.193a8.377,8.377,0,0,1-5.615-7.82V18.884a8.33,8.33,0,0,1,8.33-8.284h14.874a8.33,8.33,0,0,1,8.354,8.284V39.373a8.377,8.377,0,0,1-5.662,7.866V63.274C298.226,67.218,295.743,70.212,292.7,70.212ZM280.66,14.081a4.827,4.827,0,0,0-4.85,4.8V39.373a4.943,4.943,0,0,0,4.177,4.78l1.485.232V63.274c0,1.972,1.044,3.457,2,3.457h9.282c.951,0,2.042-1.508,2.042-3.457V44.339l1.485-.232a4.943,4.943,0,0,0,4.177-4.78V18.884a4.85,4.85,0,0,0-4.873-4.8Z" transform="translate(0 12.718)" fill="#fd5000"/>
    <path id="Caminho_121" data-name="Caminho 121" d="M284.927,21.257a10.163,10.163,0,1,1,10.14-10.163A10.163,10.163,0,0,1,284.927,21.257Zm0-16.823a6.683,6.683,0,1,0,6.66,6.66,6.683,6.683,0,0,0-6.66-6.66Z" transform="translate(3.182)" fill="#fd5000"/>
  </g>
</svg>
