<svg id="Fé" xmlns="http://www.w3.org/2000/svg" width="59.385" height="82" viewBox="0 0 59.385 82">
  <path id="Caminho_113" data-name="Caminho 113" d="M5.656,76.211V80.6a1.424,1.424,0,0,0,2.407,1l3.249-3.249,3.249,3.249a1.424,1.424,0,0,0,2.407-1V76.332H57.961a1.4,1.4,0,0,0,1.424-1.4V12.755a1.4,1.4,0,0,0-1.424-1.4H53.729V1.4A1.424,1.424,0,0,0,52.305,0H7.06A7.08,7.08,0,0,0,0,7.06V69.232a7.06,7.06,0,0,0,5.656,6.979Zm8.484.983c-.662-.542-2.006-2.367-2.828-2.246s-2.186,1.725-2.828,2.246V70.676h5.656ZM56.557,14.139V73.5H16.967V69.272a1.424,1.424,0,0,0-1.424-1.424H7.06a1.424,1.424,0,0,0-1.4,1.424v4.011a4.232,4.232,0,0,1,1.4-8.223H52.305a1.424,1.424,0,0,0,1.424-1.424v-49.5ZM50.9,12.715V62.172H8.484V2.828H50.9ZM2.768,7.06A4.252,4.252,0,0,1,5.6,3.048v59.3a7.36,7.36,0,0,0-2.828,1.264Z" transform="translate(0 0)" fill="#fd5000"/>
  <path id="Caminho_114" data-name="Caminho 114" d="M11.121,25.433h7.035v15.65a4.3,4.3,0,0,0,2.019,3.951,4.178,4.178,0,0,0,4.392,0,4.3,4.3,0,0,0,2.019-3.951V25.433H33.6a4.21,4.21,0,0,0,3.9-2.046,4.33,4.33,0,0,0,0-4.45,4.21,4.21,0,0,0-3.9-2.046H26.586V9.763a4.222,4.222,0,0,0-8.43,0v7.128H11.121a4.285,4.285,0,0,0,0,8.542Zm0-5.695h8.43a1.424,1.424,0,0,0,1.415-1.393V9.763a1.4,1.4,0,0,1,1.4-1.414,1.386,1.386,0,0,1,1,.407,1.423,1.423,0,0,1,.416,1.007v8.582a1.424,1.424,0,0,0,.4,1.013,1.386,1.386,0,0,0,.994.421H33.6a1.386,1.386,0,0,1,1,.407,1.432,1.432,0,0,1-1,2.441h-8.43a1.4,1.4,0,0,0-1.4,1.414V41.124a1.424,1.424,0,0,1-1.415,1.434,1.386,1.386,0,0,1-.994-.421,1.423,1.423,0,0,1-.4-1.013V24a1.423,1.423,0,0,0-.416-1.007,1.385,1.385,0,0,0-1-.407h-8.43a1.386,1.386,0,0,1-.994-.421,1.423,1.423,0,0,1-.4-1.013,1.4,1.4,0,0,1,1.4-1.414Z" transform="translate(7.325 5.888)" fill="#fd5000"/>
  <path id="Caminho_115" data-name="Caminho 115" d="M42.6,33.83H11.284a1.424,1.424,0,0,0,0,2.847H42.6a1.414,1.414,0,0,0,1.434-1.414A1.434,1.434,0,0,0,42.6,33.83Z" transform="translate(9.652 33.92)" fill="#fd5000"/>
</svg>
