<svg xmlns="http://www.w3.org/2000/svg" width="63.766" height="64" viewBox="0 0 63.766 64">
  <path id="Valorização" d="M170.458,90.78l-13.05,13.15V98.368H146.3v16.685l-7.349,7.389a3.019,3.019,0,0,0,2.125,5.145h2.245V154.78h11.183V137.916a3.635,3.635,0,0,1,3.615-3.615h3.158a3.615,3.615,0,0,1,3.238,1.986,6.376,6.376,0,0,0,.377,8.78v.477a5.383,5.383,0,0,0-2.2,4.35v4.886h2.86v-4.867a2.523,2.523,0,0,1,1.43-2.284,2.3,2.3,0,0,1,.814-.258h3.218a2.562,2.562,0,0,1,2.165,2.523v4.886h2.86v-4.867a5.423,5.423,0,0,0-2.5-4.549A6.4,6.4,0,0,0,172.643,135v-1.808a4.509,4.509,0,0,1,4.509-4.509h3.734a4.529,4.529,0,0,1,4.529,4.509V154.78h11.521V127.647H198.8a3.039,3.039,0,0,0,2.8-1.847,3,3,0,0,0-.616-3.277Zm-21.294,10.369h5.383v5.582l-5.383,5.423Zm10.607,30.014a4.867,4.867,0,1,1,4.847-4.867,4.867,4.867,0,0,1-4.847,4.867Zm13.209,9.376a3.525,3.525,0,1,0-.06,0Zm6.1-15.692a6.036,6.036,0,1,0-.06,0Zm19.863-.159a.159.159,0,0,1-.159.1h-4.727V152.4h-5.8V133.228a7.35,7.35,0,0,0-4.628-6.833,8.839,8.839,0,1,0-9.217,0,7.389,7.389,0,0,0-4.628,6.833v.914h-.417a6.3,6.3,0,0,0-2.523.516,6.575,6.575,0,0,0-2.364-2.3,7.727,7.727,0,1,0-9.554,0,6.5,6.5,0,0,0-3.258,5.621v14.461h-5.482v-27.65H141.1a.159.159,0,0,1-.159-.1.119.119,0,0,1,0-.159L170.4,94.872l28.5,29.636a.139.139,0,0,1,.06.179Z" transform="translate(-138.08 -90.78)" fill="#fd5000"/>
</svg>
