<svg id="whatsapp" xmlns="http://www.w3.org/2000/svg" width="14" height="14" viewBox="0 0 14 14">
  <path id="Caminho_518" data-name="Caminho 518" d="M14,6.82A6.885,6.885,0,0,1,3.805,12.792L0,14l1.24-3.66A6.75,6.75,0,0,1,.255,6.819,6.873,6.873,0,0,1,14,6.82ZM7.126,1.087A5.762,5.762,0,0,0,1.349,6.821a5.672,5.672,0,0,0,1.1,3.361l-.721,2.129,2.22-.705A5.785,5.785,0,0,0,12.9,6.82,5.762,5.762,0,0,0,7.126,1.087Zm3.471,7.3c-.043-.069-.155-.111-.323-.195s-1-.488-1.151-.543-.268-.084-.38.083-.434.544-.533.656-.2.126-.365.043A4.645,4.645,0,0,1,6.49,7.606a5.029,5.029,0,0,1-.937-1.158c-.1-.167-.01-.257.073-.341s.168-.2.253-.294a1.114,1.114,0,0,0,.168-.278.311.311,0,0,0-.014-.294c-.042-.084-.378-.906-.52-1.24s-.28-.279-.379-.279-.21-.014-.323-.014a.617.617,0,0,0-.449.208,1.871,1.871,0,0,0-.589,1.394,3.232,3.232,0,0,0,.688,1.729A6.9,6.9,0,0,0,7.341,9.564c1.713.669,1.713.446,2.022.417A1.7,1.7,0,0,0,10.5,9.188,1.389,1.389,0,0,0,10.6,8.391Z" fill="#fff"/>
</svg>
