<svg xmlns="http://www.w3.org/2000/svg" width="34.138" height="24" viewBox="0 0 34.138 24">
  <path id="youtube" d="M34.472,8.256a4.293,4.293,0,0,0-3.017-3.041C28.792,4.5,18.118,4.5,18.118,4.5S7.444,4.5,4.78,5.216A4.293,4.293,0,0,0,1.762,8.256a44.88,44.88,0,0,0-.716,8.27,44.858,44.858,0,0,0,.716,8.27,4.225,4.225,0,0,0,3.017,2.989c2.663.716,13.336.716,13.336.716s10.674,0,13.336-.716A4.225,4.225,0,0,0,34.469,24.8a44.881,44.881,0,0,0,.716-8.27,44.858,44.858,0,0,0-.716-8.27ZM14.625,21.6V11.449l8.925,5.075Z" transform="translate(-1.046 -4.5)" fill="#fff"/>
</svg>
