<svg xmlns="http://www.w3.org/2000/svg" width="24" height="21.261" viewBox="0 0 24 21.261">
  <g id="bx-group" transform="translate(-2 -3.168)">
    <path id="Caminho_42" data-name="Caminho 42" d="M17.176,13.228a7.855,7.855,0,0,0-2.387-10.06L13.5,5.295a5.274,5.274,0,0,1,2.231,3.8A4.991,4.991,0,0,1,14.488,12.9L13.1,14.425l1.882.606c4.923,1.583,4.98,7.016,4.98,7.071h2.326C22.289,19.819,21.177,15.356,17.176,13.228Z" transform="translate(3.711 0)" fill="#fff"/>
    <path id="Caminho_43" data-name="Caminho 43" d="M10.724,14.147a4.882,4.882,0,0,0,4.653-5.073A4.882,4.882,0,0,0,10.724,4,4.882,4.882,0,0,0,6.071,9.073,4.882,4.882,0,0,0,10.724,14.147Zm0-7.61A2.441,2.441,0,0,1,13.05,9.073a2.441,2.441,0,0,1-2.326,2.537A2.441,2.441,0,0,1,8.4,9.073,2.441,2.441,0,0,1,10.724,6.537Zm1.745,8.878H8.979C5.13,15.415,2,18.828,2,23.025v1.268H4.326V23.025a4.882,4.882,0,0,1,4.653-5.073h3.49a4.882,4.882,0,0,1,4.653,5.073v1.268h2.326V23.025C19.448,18.828,16.318,15.415,12.469,15.415Z" transform="translate(0 0.136)" fill="#fff"/>
  </g>
</svg>
