<svg xmlns="http://www.w3.org/2000/svg" width="18.909" height="18.909" viewBox="0 0 18.909 18.909">
  <path id="bx-at" d="M11.455,2a9.455,9.455,0,1,0,0,18.909,9.445,9.445,0,0,0,4.2-1.044l-.837-1.7a7.592,7.592,0,0,1-3.363.848,7.564,7.564,0,1,1,7.564-7.564V12.4c0,.654-.3,1.891-1.418,1.891-1.32,0-1.413-1.72-1.418-1.891V7.673H14.291V7.7a4.684,4.684,0,0,0-2.836-.969,4.727,4.727,0,1,0,3.462,7.922A2.956,2.956,0,0,0,17.6,16.182c2.149,0,3.309-1.949,3.309-3.782v-.945A9.465,9.465,0,0,0,11.455,2Zm0,12.291a2.836,2.836,0,1,1,2.836-2.836A2.84,2.84,0,0,1,11.455,14.291Z" transform="translate(-2 -2)" fill="#fff"/>
</svg>
