<svg id="instagram-icon" xmlns="http://www.w3.org/2000/svg" width="24" height="23.999" viewBox="0 0 24 23.999">
  <path id="Caminho_3" data-name="Caminho 3" d="M24.386,7.057a8.77,8.77,0,0,0-.558-2.908A6.148,6.148,0,0,0,20.319.633,8.793,8.793,0,0,0,17.4.075C16.12.014,15.709,0,12.453,0S8.785.014,7.5.07A8.773,8.773,0,0,0,4.594.628,5.856,5.856,0,0,0,2.465,2.016a5.91,5.91,0,0,0-1.383,2.12A8.794,8.794,0,0,0,.524,7.052C.463,8.337.449,8.745.449,12s.014,3.669.07,4.947a8.77,8.77,0,0,0,.558,2.911,6.148,6.148,0,0,0,3.512,3.512,8.794,8.794,0,0,0,2.911.558c1.28.056,1.688.07,4.947.07s3.667-.014,4.947-.07a8.769,8.769,0,0,0,2.911-.558,6.139,6.139,0,0,0,3.515-3.512,8.8,8.8,0,0,0,.558-2.911c.056-1.28.07-1.688.07-4.947s0-3.667-.061-4.947Zm-2.162,9.8a6.579,6.579,0,0,1-.412,2.227,3.982,3.982,0,0,1-2.279,2.279,6.6,6.6,0,0,1-2.227.412c-1.266.056-1.646.07-4.848.07s-3.587-.014-4.848-.07a6.575,6.575,0,0,1-2.226-.412A3.693,3.693,0,0,1,4,20.468a3.732,3.732,0,0,1-.9-1.383,6.6,6.6,0,0,1-.412-2.227c-.056-1.266-.07-1.646-.07-4.848s.014-3.587.07-4.848A6.575,6.575,0,0,1,3.1,4.932,3.648,3.648,0,0,1,4,3.549a3.726,3.726,0,0,1,1.383-.9,6.607,6.607,0,0,1,2.226-.4c1.266-.056,1.646-.07,4.848-.07s3.587.014,4.848.07a6.579,6.579,0,0,1,2.227.413,3.688,3.688,0,0,1,1.383.9,3.731,3.731,0,0,1,.9,1.383,6.606,6.606,0,0,1,.413,2.227c.056,1.266.07,1.646.07,4.848s-.014,3.578-.07,4.844Zm0,0" transform="translate(-0.449 0)" fill="#fff"/>
  <path id="Caminho_4" data-name="Caminho 4" d="M131.172,124.5a6.223,6.223,0,1,0,6.223,6.223,6.223,6.223,0,0,0-6.223-6.223Zm0,10.256a4.036,4.036,0,1,1,4.036-4.036A4.036,4.036,0,0,1,131.172,134.756Zm0,0" transform="translate(-119.167 -118.718)" fill="#fff"/>
  <path id="Caminho_5" data-name="Caminho 5" d="M365.3,90.028a1.426,1.426,0,1,1-1.426-1.426,1.426,1.426,0,0,1,1.426,1.426Zm0,0" transform="translate(-345.453 -84.443)" fill="#fff"/>
</svg>
